<svg xmlns="http://www.w3.org/2000/svg" xmlns:xlink="http://www.w3.org/1999/xlink" width="106" height="106" viewBox="0 0 106 106">
  <defs>
    <filter id="Trazado_982547" x="0" y="0" width="106" height="106" filterUnits="userSpaceOnUse">
      <feOffset dy="3" input="SourceAlpha"/>
      <feGaussianBlur stdDeviation="3" result="blur"/>
      <feFlood flood-opacity="0.161"/>
      <feComposite operator="in" in2="blur"/>
      <feComposite in="SourceGraphic"/>
    </filter>
  </defs>
  <g id="Grupo_1173169" data-name="Grupo 1173169" transform="translate(-171 -3711)">
    <g id="Grupo_1172017" data-name="Grupo 1172017" transform="translate(0 2654)">
      <g id="Grupo_1167337" data-name="Grupo 1167337" transform="translate(180 1063)">
        <g id="Grupo_1166720" data-name="Grupo 1166720" transform="translate(0)">
          <g id="Grupo_1164305" data-name="Grupo 1164305">
            <g id="Grupo_1163948" data-name="Grupo 1163948">
              <g id="Grupo_1158168" data-name="Grupo 1158168">
                <g id="Grupo_1152576" data-name="Grupo 1152576">
                  <g id="Grupo_1148633" data-name="Grupo 1148633">
                    <g id="Grupo_1148525" data-name="Grupo 1148525">
                      <g transform="matrix(1, 0, 0, 1, -9, -6)" filter="url(#Trazado_982547)">
                        <g id="Trazado_982547-2" data-name="Trazado 982547" transform="translate(9 6)" fill="#fff4e6">
                          <path d="M 44 86.5 C 38.26187515258789 86.5 32.69618606567383 85.37651062011719 27.45755004882812 83.16075897216797 C 22.3968505859375 81.020263671875 17.85157585144043 77.95565032958984 13.94796276092529 74.05204010009766 C 10.04434967041016 70.1484375 6.979737281799316 65.6031494140625 4.839250087738037 60.54246139526367 C 2.62348747253418 55.30381393432617 1.5 49.73812484741211 1.5 44 C 1.5 38.26187515258789 2.62348747253418 32.69618606567383 4.839250087738037 27.45755004882812 C 6.979737281799316 22.3968505859375 10.04434967041016 17.85157585144043 13.94796276092529 13.94796276092529 C 17.85157585144043 10.04434967041016 22.3968505859375 6.979737281799316 27.45755004882812 4.839250087738037 C 32.69618606567383 2.62348747253418 38.26187515258789 1.5 44 1.5 C 49.73812484741211 1.5 55.30381393432617 2.62348747253418 60.54246139526367 4.839250087738037 C 65.6031494140625 6.979737281799316 70.1484375 10.04434967041016 74.05204010009766 13.94796276092529 C 77.95565032958984 17.85157585144043 81.020263671875 22.3968505859375 83.16075897216797 27.45755004882812 C 85.37651062011719 32.69618606567383 86.5 38.26187515258789 86.5 44 C 86.5 49.73812484741211 85.37651062011719 55.30381393432617 83.16075897216797 60.54246139526367 C 81.020263671875 65.6031494140625 77.95565032958984 70.1484375 74.05204010009766 74.05204010009766 C 70.1484375 77.95565032958984 65.6031494140625 81.020263671875 60.54246139526367 83.16075897216797 C 55.30381393432617 85.37651062011719 49.73812484741211 86.5 44 86.5 Z" stroke="none"/>
                          <path d="M 44 3 C 38.46371459960938 3 33.09462738037109 4.083610534667969 28.0418701171875 6.220756530761719 C 23.15997314453125 8.285614013671875 18.77495574951172 11.24228668212891 15.00862884521484 15.00862884521484 C 11.24228668212891 18.77495574951172 8.285614013671875 23.15997314453125 6.220756530761719 28.0418701171875 C 4.083610534667969 33.09462738037109 3 38.46371459960938 3 44 C 3 49.53628540039062 4.083610534667969 54.9053840637207 6.220756530761719 59.9581298828125 C 8.285614013671875 64.84002685546875 11.24228668212891 69.22504425048828 15.00862884521484 72.99138641357422 C 18.77495574951172 76.75771331787109 23.15997314453125 79.71438598632812 28.0418701171875 81.77925872802734 C 33.09462738037109 83.9163818359375 38.46371459960938 85 44 85 C 49.53628540039062 85 54.9053840637207 83.9163818359375 59.95814514160156 81.77925872802734 C 64.84002685546875 79.71438598632812 69.22504425048828 76.75771331787109 72.99138641357422 72.99138641357422 C 76.75771331787109 69.22504425048828 79.71438598632812 64.84002685546875 81.77925872802734 59.95814514160156 C 83.9163818359375 54.9053840637207 85 49.53628540039062 85 44 C 85 38.46371459960938 83.9163818359375 33.09462738037109 81.77925872802734 28.0418701171875 C 79.71438598632812 23.15997314453125 76.75771331787109 18.77495574951172 72.99138641357422 15.00862884521484 C 69.22504425048828 11.24228668212891 64.84002685546875 8.285614013671875 59.9581298828125 6.220756530761719 C 54.9053840637207 4.083610534667969 49.53628540039062 3 44 3 M 44 0 C 68.30054473876953 0 88 19.69947052001953 88 44 C 88 68.30054473876953 68.30054473876953 88 44 88 C 19.69947052001953 88 0 68.30054473876953 0 44 C 0 19.69947052001953 19.69947052001953 0 44 0 Z" stroke="none" fill="#ff9d1c"/>
                        </g>
                      </g>
                    </g>
                  </g>
                </g>
              </g>
            </g>
          </g>
        </g>
      </g>
    </g>
    <g id="lightbulb_1404835" transform="translate(195.529 3729.366)">
      <path id="Trazado_1026953" data-name="Trazado 1026953" d="M146.98,317.708H132.218L128,304h23.2Zm0,0" transform="translate(-111.129 -263.93)" fill="#aabece"/>
      <path id="Trazado_1026954" data-name="Trazado 1026954" d="M112.906,88.871c0,10.191-8.262,20.035-18.453,20.035S76,99.063,76,88.871,84.262,72,94.453,72,112.906,78.68,112.906,88.871Zm0,0" transform="translate(-65.983 -62.51)" fill="#fcf05a"/>
      <path id="Trazado_1026955" data-name="Trazado 1026955" d="M160,408h14.763v4.218H160Zm0,0" transform="translate(-138.911 -354.222)" fill="#5a6470"/>
      <path id="Trazado_1026956" data-name="Trazado 1026956" d="M170.545,444.218h-6.327A4.218,4.218,0,0,1,160,440h14.763A4.218,4.218,0,0,1,170.545,444.218Zm0,0" transform="translate(-138.911 -382.004)" fill="#aabece"/>
      <path id="Trazado_1026957" data-name="Trazado 1026957" d="M162.751,224.747a1.054,1.054,0,0,0-1.476-.239l-2.2,1.582-2.2-1.582a1.054,1.054,0,0,0-1.232,0l-2.2,1.582-2.195-1.582a1.055,1.055,0,0,0-1.233,0l-2.193,1.582-2.19-1.582a1.055,1.055,0,1,0-1.234,1.711l2.807,2.023a1.054,1.054,0,0,0,1.234,0l.8-.572v12.412a1.054,1.054,0,1,0,2.109,0V227.43a1.026,1.026,0,0,0-.06-.3l1.546,1.113a1.054,1.054,0,0,0,1.232,0l1.564-1.129a1.021,1.021,0,0,0-.063.316v12.654a1.054,1.054,0,1,0,2.109,0v-12.4l.786.564a1.054,1.054,0,0,0,1.232,0l2.816-2.023A1.054,1.054,0,0,0,162.751,224.747Zm0,0" transform="translate(-124.989 -194.742)" fill="#e97424"/>
      <path id="Trazado_1026958" data-name="Trazado 1026958" d="M102.08,114.974a1.054,1.054,0,0,1-1.029-.826,15.111,15.111,0,0,1,2.674-13,13.986,13.986,0,0,1,11.009-5.153,1.054,1.054,0,1,1,0,2.109,11.89,11.89,0,0,0-9.365,4.365,13.036,13.036,0,0,0-2.259,11.224,1.054,1.054,0,0,1-.8,1.259,1.137,1.137,0,0,1-.229.024Zm0,0" transform="translate(-87.318 -83.34)" fill="#fff"/>
      <path id="Trazado_1026959" data-name="Trazado 1026959" d="M226.109,98.109h-1.054a1.054,1.054,0,0,1,0-2.109h1.054a1.054,1.054,0,1,1,0,2.109Zm0,0" transform="translate(-194.475 -83.346)" fill="#fff"/>
      <g id="Grupo_1173075" data-name="Grupo 1173075">
        <path id="Trazado_1026960" data-name="Trazado 1026960" d="M209.054,6.327A1.055,1.055,0,0,1,208,5.272V1.054a1.054,1.054,0,1,1,2.109,0V5.272A1.055,1.055,0,0,1,209.054,6.327Zm0,0" transform="translate(-180.584)" fill="#e97424"/>
        <path id="Trazado_1026961" data-name="Trazado 1026961" d="M340.3,365.358a1.055,1.055,0,0,1-.746-.309l-3.163-3.163a1.055,1.055,0,0,1,1.491-1.491l3.163,3.163a1.054,1.054,0,0,1-.746,1.8Zm0,0" transform="translate(-291.798 -312.634)" fill="#e97424"/>
        <path id="Trazado_1026962" data-name="Trazado 1026962" d="M28.3,53.358a1.055,1.055,0,0,1-.746-.309l-3.163-3.163a1.055,1.055,0,0,1,1.491-1.491l3.163,3.163a1.054,1.054,0,0,1-.746,1.8Zm0,0" transform="translate(-20.922 -41.759)" fill="#e97424"/>
        <path id="Trazado_1026963" data-name="Trazado 1026963" d="M57.055,365.358a1.054,1.054,0,0,1-.746-1.8l3.163-3.163a1.054,1.054,0,0,1,1.491,1.491L57.8,365.049a1.055,1.055,0,0,1-.746.309Zm0,0" transform="translate(-48.619 -312.634)" fill="#e97424"/>
        <path id="Trazado_1026964" data-name="Trazado 1026964" d="M6.327,234.109H1.054a1.054,1.054,0,1,1,0-2.109H6.327a1.054,1.054,0,1,1,0,2.109Zm0,0" transform="translate(0 -201.42)" fill="#e97424"/>
        <path id="Trazado_1026965" data-name="Trazado 1026965" d="M369.055,53.358a1.054,1.054,0,0,1-.746-1.8l3.163-3.163a1.055,1.055,0,0,1,1.491,1.491L369.8,53.049a1.055,1.055,0,0,1-.746.309Zm0,0" transform="translate(-319.495 -41.759)" fill="#e97424"/>
        <path id="Trazado_1026966" data-name="Trazado 1026966" d="M382.327,234.109h-5.272a1.054,1.054,0,1,1,0-2.109h5.272a1.054,1.054,0,1,1,0,2.109Zm0,0" transform="translate(-326.44 -201.42)" fill="#e97424"/>
      </g>
      <path id="Trazado_1026967" data-name="Trazado 1026967" d="M68,81.926A21.931,21.931,0,0,0,75.653,98.39L79.072,109.5v4.059a5.279,5.279,0,0,0,5.272,5.272h6.327a5.279,5.279,0,0,0,5.272-5.272V109.5L99.362,98.39a21.932,21.932,0,0,0,7.653-16.464c0-10.388-8.2-17.926-19.508-17.926S68,71.538,68,81.926Zm25.834,30.58H81.181V110.4H93.834Zm-3.163,4.218H84.344a3.17,3.17,0,0,1-2.983-2.109H93.654a3.17,3.17,0,0,1-2.983,2.109Zm3.44-8.436H80.9l-2.411-7.839a17.112,17.112,0,0,0,18.031,0ZM85.338,87.953l1.546,1.113a1.054,1.054,0,0,0,1.232,0l1.564-1.129a1.021,1.021,0,0,0-.063.316v12.483a13.085,13.085,0,0,1-4.218,0V88.253A1.027,1.027,0,0,0,85.338,87.953Zm2.169-21.844c10.082,0,17.4,6.653,17.4,15.817,0,8.535-5.8,16.163-13.181,18.34V88.5l.786.564a1.054,1.054,0,0,0,1.232,0l2.816-2.023a1.054,1.054,0,1,0-1.232-1.711l-2.2,1.582-2.2-1.582a1.055,1.055,0,0,0-1.232,0l-2.2,1.582-2.2-1.582a1.054,1.054,0,0,0-1.233,0l-2.193,1.582-2.19-1.582a1.055,1.055,0,0,0-1.234,1.711l2.807,2.023a1.054,1.054,0,0,0,1.234,0l.794-.572v11.772c-7.381-2.177-13.181-9.805-13.181-18.34,0-9.164,7.317-15.817,17.4-15.817Zm0,0" transform="translate(-59.037 -55.564)"/>
      <path id="Trazado_1026968" data-name="Trazado 1026968" d="M101.043,114.148a1.055,1.055,0,0,0,1.03.826,1.144,1.144,0,0,0,.23-.024,1.054,1.054,0,0,0,.8-1.259,13.036,13.036,0,0,1,2.259-11.224,11.891,11.891,0,0,1,9.364-4.365,1.054,1.054,0,1,0,0-2.109,13.984,13.984,0,0,0-11.01,5.153,15.111,15.111,0,0,0-2.674,13Zm0,0" transform="translate(-87.311 -83.34)"/>
      <path id="Trazado_1026969" data-name="Trazado 1026969" d="M225.054,98.109h1.054a1.054,1.054,0,1,0,0-2.109h-1.054a1.054,1.054,0,0,0,0,2.109Zm0,0" transform="translate(-194.475 -83.346)"/>
      <path id="Trazado_1026970" data-name="Trazado 1026970" d="M210.109,5.272V1.054a1.054,1.054,0,1,0-2.109,0V5.272a1.054,1.054,0,1,0,2.109,0Zm0,0" transform="translate(-180.584)"/>
      <path id="Trazado_1026971" data-name="Trazado 1026971" d="M336.312,360.312a1.055,1.055,0,0,0,0,1.491l3.163,3.163a1.055,1.055,0,0,0,1.491-1.491l-3.163-3.163a1.055,1.055,0,0,0-1.491,0Zm0,0" transform="translate(-291.715 -312.552)"/>
      <path id="Trazado_1026972" data-name="Trazado 1026972" d="M25.885,48.394a1.055,1.055,0,0,0-1.491,1.491l3.163,3.163a1.055,1.055,0,0,0,1.491-1.491Zm0,0" transform="translate(-20.922 -41.759)"/>
      <path id="Trazado_1026973" data-name="Trazado 1026973" d="M56.312,365.049a1.055,1.055,0,0,0,1.491,0l3.163-3.163a1.055,1.055,0,0,0-1.491-1.491l-3.163,3.163a1.055,1.055,0,0,0,0,1.491Zm0,0" transform="translate(-48.621 -312.634)"/>
      <path id="Trazado_1026974" data-name="Trazado 1026974" d="M6.327,232H1.054a1.054,1.054,0,1,0,0,2.109H6.327a1.054,1.054,0,1,0,0-2.109Zm0,0" transform="translate(0 -201.42)"/>
      <path id="Trazado_1026975" data-name="Trazado 1026975" d="M371.388,48.394l-3.163,3.163a1.055,1.055,0,1,0,1.491,1.491l3.163-3.163a1.055,1.055,0,0,0-1.491-1.491Zm0,0" transform="translate(-319.41 -41.759)"/>
      <path id="Trazado_1026976" data-name="Trazado 1026976" d="M376,233.054a1.055,1.055,0,0,0,1.055,1.054h5.272a1.054,1.054,0,1,0,0-2.109h-5.272A1.055,1.055,0,0,0,376,233.054Zm0,0" transform="translate(-326.44 -201.42)"/>
    </g>
  </g>
</svg>
