<svg xmlns="http://www.w3.org/2000/svg" width="30.903" height="30.897" viewBox="0 0 30.903 30.897">
  <g id="web_16393400" transform="translate(-0.492 -0.5)">
    <path id="Trazado_1027824" data-name="Trazado 1027824" d="M29.205,36.571a.621.621,0,0,0,.657-.657V16.257a.621.621,0,0,0-.657-.657H23.157a.621.621,0,0,0-.657.657V35.913a.621.621,0,0,0,.657.657ZM23.815,16.915h4.733V35.256H23.815Z" transform="translate(-7.54 -5.173)" fill="#0b0a0a"/>
    <path id="Trazado_1027825" data-name="Trazado 1027825" d="M36.3,38.449a.621.621,0,0,0,.657.657h6.048a.621.621,0,0,0,.657-.657V23H42.348V37.791H37.615V23H36.3Z" transform="translate(-12.268 -7.709)" fill="#0b0a0a"/>
    <path id="Trazado_1027826" data-name="Trazado 1027826" d="M43.663,1.157A.621.621,0,0,0,43.005.5H36.957a.621.621,0,0,0-.657.657V11.281h1.315V1.815h4.733v9.466h1.315Z" transform="translate(-12.268)" fill="#0b0a0a"/>
    <path id="Trazado_1027827" data-name="Trazado 1027827" d="M1.878,12.152A4.753,4.753,0,0,0,.5,15.7l.46,6.311A1.618,1.618,0,0,0,2.141,23.59a1.119,1.119,0,0,0,.46.066h.92L4.639,34.372a.7.7,0,0,0,.657.592h3.09a.7.7,0,0,0,.657-.592l1.118-10.716h.92a1.447,1.447,0,0,0,.526-.066,1.619,1.619,0,0,0,1.118-1.512l.46-6.377a4.607,4.607,0,0,0-1.315-3.55,3.854,3.854,0,0,0-1.249-.855,4.377,4.377,0,0,0-1.446-.2.934.934,0,0,0-.394.131L6.808,12.678,4.836,11.231a.934.934,0,0,0-.394-.131A8.835,8.835,0,0,0,3,11.3a4.6,4.6,0,0,0-1.118.855Zm2.432.263,2.169,1.578a.6.6,0,0,0,.789,0l2.169-1.578a2.029,2.029,0,0,1,.723.131,2.5,2.5,0,0,1,.855.592,3.272,3.272,0,0,1,.92,2.564l-.46,6.442a.362.362,0,0,1-.2.329H9.635a.7.7,0,0,0-.657.592L7.86,33.78H5.888L4.77,23a.7.7,0,0,0-.657-.592H2.535a.2.2,0,0,1-.131-.066.362.362,0,0,1-.2-.329l-.394-6.377A3.414,3.414,0,0,1,2.8,13.072a2.5,2.5,0,0,1,.855-.592c.066,0,.394-.066.657-.066Z" transform="translate(0 -3.632)" fill="#0b0a0a"/>
    <path id="Trazado_1027828" data-name="Trazado 1027828" d="M8.59,7.371c1.709,0,3.024-2.038,3.024-3.747A3.058,3.058,0,0,0,5.5,3.558c0,1.709,1.381,3.813,3.09,3.813Zm0-5.522A1.74,1.74,0,0,1,10.3,3.558c0,1.052-.855,2.432-1.709,2.432S6.815,4.61,6.815,3.558A1.755,1.755,0,0,1,8.59,1.849Z" transform="translate(-1.716 -0.034)" fill="#0b0a0a"/>
    <path id="Trazado_1027829" data-name="Trazado 1027829" d="M40.707,26.207V17.135l1.972,1.972.92-.92L40.51,15.1a.635.635,0,0,0-.92,0l-3.09,3.09.92.92,1.972-1.972v9.138h1.315Z" transform="translate(-12.337 -4.934)" fill="#0b0a0a"/>
  </g>
</svg>
