<svg xmlns="http://www.w3.org/2000/svg" xmlns:xlink="http://www.w3.org/1999/xlink" width="108" height="108" viewBox="0 0 108 108">
  <defs>
    <filter id="Trazado_904820" x="0" y="0" width="108" height="108" filterUnits="userSpaceOnUse">
      <feOffset dy="3" input="SourceAlpha"/>
      <feGaussianBlur stdDeviation="3" result="blur"/>
      <feFlood flood-opacity="0.161"/>
      <feComposite operator="in" in2="blur"/>
      <feComposite in="SourceGraphic"/>
    </filter>
  </defs>
  <g id="Grupo_1173297" data-name="Grupo 1173297" transform="translate(9 6)">
    <g id="Grupo_1171910" data-name="Grupo 1171910" transform="translate(0)">
      <g id="Grupo_1167341" data-name="Grupo 1167341">
        <g id="Grupo_1166792" data-name="Grupo 1166792">
          <g transform="matrix(1, 0, 0, 1, -9, -6)" filter="url(#Trazado_904820)">
            <g id="Trazado_904820-2" data-name="Trazado 904820" transform="translate(9 6)" fill="#fff4e6">
              <path d="M 44.99999618530273 88.50003051757812 C 39.12687301635742 88.50003051757812 33.43022155761719 87.35010528564453 28.06829643249512 85.08219909667969 C 22.88852119445801 82.89134216308594 18.23629570007324 79.75461578369141 14.24084663391113 75.75916290283203 C 10.24540901184082 71.76371765136719 7.108683586120605 67.11150360107422 4.917821407318115 61.93172836303711 C 2.649921178817749 56.56978988647461 1.499996185302734 50.87313842773438 1.499996185302734 45.00001525878906 C 1.499996185302734 39.12689208984375 2.649921178817749 33.43024063110352 4.917821407318115 28.06831550598145 C 7.108683586120605 22.88854026794434 10.24540901184082 18.23631477355957 14.24084663391113 14.24086570739746 C 18.23629570007324 10.24541568756104 22.88852119445801 7.10869026184082 28.06829643249512 4.917840480804443 C 33.43022155761719 2.649927854537964 39.12687301635742 1.50000274181366 44.99999618530273 1.50000274181366 C 50.87311935424805 1.50000274181366 56.56977081298828 2.649927854537964 61.93169784545898 4.917840480804443 C 67.11147308349609 7.10869026184082 71.76369476318359 10.24541568756104 75.75914764404297 14.24086570739746 C 79.75458526611328 18.23631477355957 82.89131164550781 22.88854026794434 85.08216857910156 28.06831550598145 C 87.35007476806641 33.43024063110352 88.5 39.12689208984375 88.5 45.00001525878906 C 88.5 50.87313842773438 87.35007476806641 56.56978988647461 85.08216857910156 61.93172836303711 C 82.89131164550781 67.11150360107422 79.75458526611328 71.76371765136719 75.75914764404297 75.75916290283203 C 71.76369476318359 79.75461578369141 67.11147308349609 82.89134216308594 61.93169784545898 85.08219909667969 C 56.56977081298828 87.35010528564453 50.87311935424805 88.50003051757812 44.99999618530273 88.50003051757812 Z" stroke="none"/>
              <path d="M 44.99999618530273 3 C 39.32870864868164 3 33.82865142822266 4.110061645507812 28.65262603759766 6.299346923828125 C 23.65165710449219 8.414573669433594 19.15968322753906 11.44334411621094 15.301513671875 15.301513671875 C 11.44333648681641 19.15968322753906 8.414566040039062 23.65165710449219 6.299339294433594 28.65262985229492 C 4.110054016113281 33.82867050170898 2.999992370605469 39.32872772216797 2.999992370605469 45.00001525878906 C 2.999992370605469 50.67130279541016 4.110054016113281 56.17136001586914 6.299339294433594 61.34738922119141 C 8.414566040039062 66.34837341308594 11.44333648681641 70.84033203125 15.301513671875 74.69850158691406 C 19.15968322753906 78.55668640136719 23.65165710449219 81.58545684814453 28.65262603759766 83.70068359375 C 33.82865142822266 85.88996887207031 39.32870864868164 87.00003051757812 44.99999618530273 87.00003051757812 C 50.67128372192383 87.00003051757812 56.17134094238281 85.88996887207031 61.34736633300781 83.70068359375 C 66.34834289550781 81.58545684814453 70.84030914306641 78.55668640136719 74.69847869873047 74.69850158691406 C 78.55665588378906 70.84033203125 81.58542633056641 66.34837341308594 83.70065307617188 61.34738922119141 C 85.88993835449219 56.17136001586914 87 50.67130279541016 87 45.00001525878906 C 87 39.32872772216797 85.88993835449219 33.82867050170898 83.70065307617188 28.65262985229492 C 81.58542633056641 23.65165710449219 78.55665588378906 19.15968322753906 74.69847869873047 15.301513671875 C 70.84030914306641 11.44334411621094 66.34834289550781 8.414573669433594 61.34736633300781 6.299346923828125 C 56.17134094238281 4.110061645507812 50.67128372192383 3 44.99999618530273 3 M 44.99999618530273 0 C 69.85281372070312 0 90 20.14718627929688 90 45.00001525878906 C 90 69.85282897949219 69.85281372070312 90.00003051757812 44.99999618530273 90.00003051757812 C 20.14717864990234 90.00003051757812 -7.62939453125e-06 69.85282897949219 -7.62939453125e-06 45.00001525878906 C -7.62939453125e-06 20.14718627929688 20.14717864990234 0 44.99999618530273 0 Z" stroke="none" fill="#ff9d1c"/>
            </g>
          </g>
        </g>
      </g>
    </g>
    <g id="profits_4336125" transform="translate(16.266 16.266)">
      <g id="Grupo_1173397" data-name="Grupo 1173397" transform="translate(0.927 0.927)">
        <g id="Grupo_1173379" data-name="Grupo 1173379" transform="translate(34.295)">
          <circle id="Elipse_11829" data-name="Elipse 11829" cx="2" cy="2" r="2" transform="translate(-0.488 -0.193)" fill="#ff826e"/>
        </g>
        <g id="Grupo_1173380" data-name="Grupo 1173380" transform="translate(49.126)">
          <circle id="Elipse_11830" data-name="Elipse 11830" cx="2" cy="2" r="2" transform="translate(-0.319 -0.193)" fill="#ff826e"/>
        </g>
        <g id="Grupo_1173381" data-name="Grupo 1173381" transform="translate(41.711)">
          <circle id="Elipse_11831" data-name="Elipse 11831" cx="2" cy="2" r="2" transform="translate(0.096 -0.193)" fill="#ff826e"/>
        </g>
        <g id="Grupo_1173382" data-name="Grupo 1173382" transform="translate(22.246 50.053)">
          <circle id="Elipse_11832" data-name="Elipse 11832" cx="2" cy="2" r="2" transform="translate(-0.438 -0.246)" fill="#ff826e"/>
        </g>
        <g id="Grupo_1173383" data-name="Grupo 1173383" transform="translate(7.415 50.053)">
          <ellipse id="Elipse_11833" data-name="Elipse 11833" cx="1.5" cy="2" rx="1.5" ry="2" transform="translate(0.392 -0.246)" fill="#ff826e"/>
        </g>
        <g id="Grupo_1173384" data-name="Grupo 1173384" transform="translate(14.83 50.053)">
          <circle id="Elipse_11834" data-name="Elipse 11834" cx="2" cy="2" r="2" transform="translate(-0.023 -0.246)" fill="#ff826e"/>
        </g>
        <g id="Grupo_1173385" data-name="Grupo 1173385" transform="translate(0 8.342)">
          <path id="Trazado_1028542" data-name="Trazado 1028542" d="M38.076,10H2.854A1.859,1.859,0,0,0,1,11.854v6.488H39.93V11.854A1.859,1.859,0,0,0,38.076,10Z" transform="translate(-1 -10)" fill="#ccd1d9"/>
        </g>
        <g id="Grupo_1173386" data-name="Grupo 1173386" transform="translate(28.734 5.561)">
          <path id="Trazado_1028543" data-name="Trazado 1028543" d="M35.708,9.781v1.854a.93.93,0,0,1-.927.927H32.927A.93.93,0,0,1,32,11.635V7.927A.93.93,0,0,1,32.927,7h1.854a.93.93,0,0,1,.927.927Z" transform="translate(-32 -7)" fill="#fcd770"/>
        </g>
        <g id="Grupo_1173387" data-name="Grupo 1173387" transform="translate(21.319 5.561)">
          <path id="Trazado_1028544" data-name="Trazado 1028544" d="M27.708,9.781v1.854a.93.93,0,0,1-.927.927H24.927A.93.93,0,0,1,24,11.635V7.927A.93.93,0,0,1,24.927,7h1.854a.93.93,0,0,1,.927.927Z" transform="translate(-24 -7)" fill="#fcd770"/>
        </g>
        <g id="Grupo_1173388" data-name="Grupo 1173388" transform="translate(13.904 5.561)">
          <path id="Trazado_1028545" data-name="Trazado 1028545" d="M19.708,9.781v1.854a.93.93,0,0,1-.927.927H16.927A.93.93,0,0,1,16,11.635V7.927A.93.93,0,0,1,16.927,7h1.854a.93.93,0,0,1,.927.927Z" transform="translate(-16 -7)" fill="#fcd770"/>
        </g>
        <g id="Grupo_1173389" data-name="Grupo 1173389" transform="translate(6.488 5.561)">
          <path id="Trazado_1028546" data-name="Trazado 1028546" d="M11.708,9.781v1.854a.93.93,0,0,1-.927.927H8.927A.93.93,0,0,1,8,11.635V7.927A.93.93,0,0,1,8.927,7h1.854a.93.93,0,0,1,.927.927Z" transform="translate(-8 -7)" fill="#fcd770"/>
        </g>
        <g id="Grupo_1173390" data-name="Grupo 1173390" transform="translate(0 16.684)">
          <path id="Trazado_1028547" data-name="Trazado 1028547" d="M31.3,43.1a37.553,37.553,0,0,0-.64,3.708H2.854A1.859,1.859,0,0,1,1,44.953V19H39.93v7.415l-2.781-1.854-.927.927V23.635a.93.93,0,0,0-.927-.927H5.635a.93.93,0,0,0-.927.927V42.173a.93.93,0,0,0,.927.927H31.3Z" transform="translate(-1 -19)" fill="#e6e9ed"/>
        </g>
        <g id="Grupo_1173391" data-name="Grupo 1173391" transform="translate(3.708 20.392)">
          <path id="Trazado_1028548" data-name="Trazado 1028548" d="M34.661,27.635l1.854-1.854V23.927A.93.93,0,0,0,35.588,23H5.927A.93.93,0,0,0,5,23.927V42.465a.93.93,0,0,0,.927.927H31.593l1.585-2.966L39.3,32.269Z" transform="translate(-5 -23)" fill="#ffeaa7"/>
        </g>
        <g id="Grupo_1173392" data-name="Grupo 1173392" transform="translate(24.099 24.099)">
          <path id="Trazado_1028549" data-name="Trazado 1028549" d="M30.708,27.927V43.684H27V27.927A.93.93,0,0,1,27.927,27h1.854A.93.93,0,0,1,30.708,27.927Z" transform="translate(-27 -27)" fill="#ff826e"/>
        </g>
        <g id="Grupo_1173393" data-name="Grupo 1173393" transform="translate(16.684 27.807)">
          <path id="Trazado_1028550" data-name="Trazado 1028550" d="M22.708,31.927v12.05H19V31.927A.93.93,0,0,1,19.927,31h1.854A.93.93,0,0,1,22.708,31.927Z" transform="translate(-19 -31)" fill="#ff826e"/>
        </g>
        <g id="Grupo_1173394" data-name="Grupo 1173394" transform="translate(9.269 31.515)">
          <path id="Trazado_1028551" data-name="Trazado 1028551" d="M14.708,35.927v8.342H11V35.927A.93.93,0,0,1,11.927,35h1.854A.93.93,0,0,1,14.708,35.927Z" transform="translate(-11 -35)" fill="#ff826e"/>
        </g>
        <g id="Grupo_1173395" data-name="Grupo 1173395" transform="translate(33.369 20.392)">
          <path id="Trazado_1028552" data-name="Trazado 1028552" d="M55.538,27.635,50.9,32.269H41.635L37,27.635l1.854-1.854.927-.927,2.781,1.854L43.488,23H49.05l.927,3.708,2.781-1.854Z" transform="translate(-37 -23)" fill="#a0d468"/>
        </g>
        <g id="Grupo_1173396" data-name="Grupo 1173396" transform="translate(29.661 29.661)">
          <path id="Trazado_1028553" data-name="Trazado 1028553" d="M33.64,44.123l1.585-2.966L41.342,33h9.269l6.118,8.157a11.117,11.117,0,0,1-8.9,17.8H44.123A11.12,11.12,0,0,1,33,47.83,37.553,37.553,0,0,1,33.64,44.123Z" transform="translate(-33 -33)" fill="#b4dd7f"/>
        </g>
      </g>
      <g id="Grupo_1173398" data-name="Grupo 1173398">
        <path id="Trazado_1028554" data-name="Trazado 1028554" d="M10.781,54a2.781,2.781,0,1,0,2.781,2.781A2.784,2.784,0,0,0,10.781,54Zm0,3.708a.927.927,0,1,1,.927-.927A.928.928,0,0,1,10.781,57.708Z" transform="translate(-0.585 -3.947)"/>
        <path id="Trazado_1028555" data-name="Trazado 1028555" d="M18.781,54a2.781,2.781,0,1,0,2.781,2.781A2.784,2.784,0,0,0,18.781,54Zm0,3.708a.927.927,0,1,1,.927-.927A.928.928,0,0,1,18.781,57.708Z" transform="translate(-1.17 -3.947)"/>
        <path id="Trazado_1028556" data-name="Trazado 1028556" d="M26.781,54a2.781,2.781,0,1,0,2.781,2.781A2.784,2.784,0,0,0,26.781,54Zm0,3.708a.927.927,0,1,1,.927-.927A.928.928,0,0,1,26.781,57.708Z" transform="translate(-1.754 -3.947)"/>
        <path id="Trazado_1028557" data-name="Trazado 1028557" d="M47.561,39.947V38H45.708v1.854H42v2.781a4.64,4.64,0,0,0,4.635,4.635,2.784,2.784,0,0,1,2.781,2.781v.927H46.635A2.784,2.784,0,0,1,43.854,48.2v-.927H42V48.2a4.643,4.643,0,0,0,3.708,4.541v1.947h1.854V52.83h3.708V50.05a4.64,4.64,0,0,0-4.635-4.635,2.784,2.784,0,0,1-2.781-2.781v-.927h2.781a2.784,2.784,0,0,1,2.781,2.781v.927h1.854v-.927a4.643,4.643,0,0,0-3.708-4.541Z" transform="translate(-3.07 -2.778)"/>
        <path id="Trazado_1028558" data-name="Trazado 1028558" d="M55.058,38.627l-5.636-7.513,4.722-4.722-3.974-3.974-2.318,1.545-.783-3.133H40.784V11.561A2.784,2.784,0,0,0,38,8.781H34.3V7.854A1.856,1.856,0,0,0,32.442,6H30.588a1.856,1.856,0,0,0-1.854,1.854v.927H26.88V7.854A1.856,1.856,0,0,0,25.026,6H23.173a1.856,1.856,0,0,0-1.854,1.854v.927H19.465V7.854A1.856,1.856,0,0,0,17.611,6H15.757A1.856,1.856,0,0,0,13.9,7.854v.927H12.05V7.854A1.856,1.856,0,0,0,10.2,6H8.342A1.856,1.856,0,0,0,6.488,7.854v.927H2.781A2.784,2.784,0,0,0,0,11.561V44a2.784,2.784,0,0,0,2.781,2.781H29.708a12.058,12.058,0,0,0,12,11.123h3.708a12.05,12.05,0,0,0,9.64-19.28ZM45.621,22.684l1.071,4.281L49.935,24.8l1.588,1.589L47.815,30.1h-8.5l-3.708-3.708L37.194,24.8l3.243,2.162,1.071-4.282ZM27.807,41.222H25.953V26.392h1.854Zm0-16.684H25.953A1.856,1.856,0,0,0,24.1,26.392v14.83H22.246V30.1a1.856,1.856,0,0,0-1.854-1.854H18.538A1.856,1.856,0,0,0,16.684,30.1V41.222H14.83V33.807a1.856,1.856,0,0,0-1.854-1.854H11.123a1.856,1.856,0,0,0-1.854,1.854v7.415H5.561V22.684H35.222v1.47l-2.238,2.238,4.722,4.722-5.636,7.513a12.021,12.021,0,0,0-1.476,2.6h-.934V26.392a1.856,1.856,0,0,0-1.854-1.854ZM20.392,41.222H18.538V30.1h1.854Zm-7.415,0H11.123V33.807h1.854ZM30.588,7.854h1.854v3.708H30.588Zm-7.415,0h1.854v3.708H23.173Zm-7.415,0h1.854v3.708H15.757Zm-7.415,0H10.2v3.708H8.342ZM2.781,10.635H6.488v.927a1.856,1.856,0,0,0,1.854,1.854H10.2a1.856,1.856,0,0,0,1.854-1.854v-.927H13.9v.927a1.856,1.856,0,0,0,1.854,1.854h1.854a1.856,1.856,0,0,0,1.854-1.854v-.927h1.854v.927a1.856,1.856,0,0,0,1.854,1.854h1.854a1.856,1.856,0,0,0,1.854-1.854v-.927h1.854v.927a1.856,1.856,0,0,0,1.854,1.854h1.854A1.856,1.856,0,0,0,34.3,11.561v-.927H38a.928.928,0,0,1,.927.927v5.561H1.854V11.561A.928.928,0,0,1,2.781,10.635ZM1.854,44V18.977H38.93v4.757l-1.874-1.249a1.849,1.849,0,0,0-1.833-1.654H5.561a1.856,1.856,0,0,0-1.854,1.854V41.222a1.856,1.856,0,0,0,1.854,1.854H29.994A12.043,12.043,0,0,0,29.7,44.93H2.781A.928.928,0,0,1,1.854,44Zm43.564,12.05H41.711a10.2,10.2,0,0,1-8.157-16.314l5.839-7.785h8.342l5.839,7.785a10.2,10.2,0,0,1-8.157,16.314Z" transform="translate(0 -0.439)"/>
        <path id="Trazado_1028559" data-name="Trazado 1028559" d="M39.781,5.561A2.781,2.781,0,1,0,37,2.781,2.784,2.784,0,0,0,39.781,5.561Zm0-3.708a.927.927,0,1,1-.927.927A.928.928,0,0,1,39.781,1.854Z" transform="translate(-2.705)"/>
        <path id="Trazado_1028560" data-name="Trazado 1028560" d="M47.781,5.561A2.781,2.781,0,1,0,45,2.781,2.784,2.784,0,0,0,47.781,5.561Zm0-3.708a.927.927,0,1,1-.927.927A.928.928,0,0,1,47.781,1.854Z" transform="translate(-3.289)"/>
        <path id="Trazado_1028561" data-name="Trazado 1028561" d="M55.781,5.561A2.781,2.781,0,1,0,53,2.781,2.784,2.784,0,0,0,55.781,5.561Zm0-3.708a.927.927,0,1,1-.927.927A.928.928,0,0,1,55.781,1.854Z" transform="translate(-3.874)"/>
      </g>
    </g>
  </g>
</svg>
