<svg xmlns="http://www.w3.org/2000/svg" xmlns:xlink="http://www.w3.org/1999/xlink" width="108" height="108" viewBox="0 0 108 108">
  <defs>
    <filter id="Trazado_904820" x="0" y="0" width="108" height="108" filterUnits="userSpaceOnUse">
      <feOffset dy="3" input="SourceAlpha"/>
      <feGaussianBlur stdDeviation="3" result="blur"/>
      <feFlood flood-opacity="0.161"/>
      <feComposite operator="in" in2="blur"/>
      <feComposite in="SourceGraphic"/>
    </filter>
  </defs>
  <g id="Grupo_1173311" data-name="Grupo 1173311" transform="translate(-200 -1611)">
    <g id="Grupo_1171911" data-name="Grupo 1171911" transform="translate(-403 -1824)">
      <g id="Grupo_1167341" data-name="Grupo 1167341" transform="translate(417 1469)">
        <g id="Grupo_1166792" data-name="Grupo 1166792" transform="translate(195 1972)">
          <g transform="matrix(1, 0, 0, 1, -9, -6)" filter="url(#Trazado_904820)">
            <g id="Trazado_904820-2" data-name="Trazado 904820" transform="translate(9 6)" fill="#f2f7e5">
              <path d="M 44.99999618530273 88.50003051757812 C 39.12687301635742 88.50003051757812 33.43022155761719 87.35010528564453 28.06829643249512 85.08219909667969 C 22.88852119445801 82.89134216308594 18.23629570007324 79.75461578369141 14.24084663391113 75.75916290283203 C 10.24540901184082 71.76371765136719 7.108683586120605 67.11150360107422 4.917821407318115 61.93172836303711 C 2.649921178817749 56.56978988647461 1.499996185302734 50.87313842773438 1.499996185302734 45.00001525878906 C 1.499996185302734 39.12689208984375 2.649921178817749 33.43024063110352 4.917821407318115 28.06831550598145 C 7.108683586120605 22.88854026794434 10.24540901184082 18.23631477355957 14.24084663391113 14.24086570739746 C 18.23629570007324 10.24541568756104 22.88852119445801 7.10869026184082 28.06829643249512 4.917840480804443 C 33.43022155761719 2.649927854537964 39.12687301635742 1.50000274181366 44.99999618530273 1.50000274181366 C 50.87311935424805 1.50000274181366 56.56977081298828 2.649927854537964 61.93169784545898 4.917840480804443 C 67.11147308349609 7.10869026184082 71.76369476318359 10.24541568756104 75.75914764404297 14.24086570739746 C 79.75458526611328 18.23631477355957 82.89131164550781 22.88854026794434 85.08216857910156 28.06831550598145 C 87.35007476806641 33.43024063110352 88.5 39.12689208984375 88.5 45.00001525878906 C 88.5 50.87313842773438 87.35007476806641 56.56978988647461 85.08216857910156 61.93172836303711 C 82.89131164550781 67.11150360107422 79.75458526611328 71.76371765136719 75.75914764404297 75.75916290283203 C 71.76369476318359 79.75461578369141 67.11147308349609 82.89134216308594 61.93169784545898 85.08219909667969 C 56.56977081298828 87.35010528564453 50.87311935424805 88.50003051757812 44.99999618530273 88.50003051757812 Z" stroke="none"/>
              <path d="M 44.99999618530273 3 C 39.32870864868164 3 33.82865142822266 4.110061645507812 28.65262603759766 6.299346923828125 C 23.65165710449219 8.414573669433594 19.15968322753906 11.44334411621094 15.301513671875 15.301513671875 C 11.44333648681641 19.15968322753906 8.414566040039062 23.65165710449219 6.299339294433594 28.65262985229492 C 4.110054016113281 33.82867050170898 2.999992370605469 39.32872772216797 2.999992370605469 45.00001525878906 C 2.999992370605469 50.67130279541016 4.110054016113281 56.17136001586914 6.299339294433594 61.34738922119141 C 8.414566040039062 66.34837341308594 11.44333648681641 70.84033203125 15.301513671875 74.69850158691406 C 19.15968322753906 78.55668640136719 23.65165710449219 81.58545684814453 28.65262603759766 83.70068359375 C 33.82865142822266 85.88996887207031 39.32870864868164 87.00003051757812 44.99999618530273 87.00003051757812 C 50.67128372192383 87.00003051757812 56.17134094238281 85.88996887207031 61.34736633300781 83.70068359375 C 66.34834289550781 81.58545684814453 70.84030914306641 78.55668640136719 74.69847869873047 74.69850158691406 C 78.55665588378906 70.84033203125 81.58542633056641 66.34837341308594 83.70065307617188 61.34738922119141 C 85.88993835449219 56.17136001586914 87 50.67130279541016 87 45.00001525878906 C 87 39.32872772216797 85.88993835449219 33.82867050170898 83.70065307617188 28.65262985229492 C 81.58542633056641 23.65165710449219 78.55665588378906 19.15968322753906 74.69847869873047 15.301513671875 C 70.84030914306641 11.44334411621094 66.34834289550781 8.414573669433594 61.34736633300781 6.299346923828125 C 56.17134094238281 4.110061645507812 50.67128372192383 3 44.99999618530273 3 M 44.99999618530273 0 C 69.85281372070312 0 90 20.14718627929688 90 45.00001525878906 C 90 69.85282897949219 69.85281372070312 90.00003051757812 44.99999618530273 90.00003051757812 C 20.14717864990234 90.00003051757812 -7.62939453125e-06 69.85282897949219 -7.62939453125e-06 45.00001525878906 C -7.62939453125e-06 20.14718627929688 20.14717864990234 0 44.99999618530273 0 Z" stroke="none" fill="#86b60c"/>
            </g>
          </g>
        </g>
      </g>
    </g>
    <g id="installment_9359564" transform="translate(217.615 1605.918)">
      <path id="Trazado_1028562" data-name="Trazado 1028562" d="M7.5,112.09v30.884a2.906,2.906,0,0,0,2.906,2.906H27.94a12.314,12.314,0,0,1,18.84-13.6l.1.07.065-.1a1.272,1.272,0,0,1,1.084-.6v-.232a1.28,1.28,0,0,1-1.279-1.279V127.15a1.28,1.28,0,0,1,1.279-1.279v-.232a1.28,1.28,0,0,1-1.279-1.279v-2.979a1.28,1.28,0,0,1,1.279-1.279h6.929V112.09H7.5Z" transform="translate(0 -70.491)" fill="#f9f3f1"/>
      <path id="Trazado_1028563" data-name="Trazado 1028563" d="M63.937,321.7H59.384a.581.581,0,0,1-.581-.581v-4.553a.581.581,0,0,1,.581-.581h4.553a.581.581,0,0,1,.581.581v4.553A.581.581,0,0,1,63.937,321.7Z" transform="translate(-45.34 -250.683)" fill="#e1d3ce"/>
      <path id="Trazado_1028564" data-name="Trazado 1028564" d="M84.437,315.983H82a.581.581,0,0,1,.581.581v4.553A.581.581,0,0,1,82,321.7h2.437a.581.581,0,0,0,.581-.581v-4.553A.581.581,0,0,0,84.437,315.983Z" transform="translate(-65.84 -250.684)" fill="#cdbfba"/>
      <rect id="Rectángulo_414887" data-name="Rectángulo 414887" width="4.857" height="8.012" transform="translate(50.101 41.599)" fill="#f3eae6"/>
      <path id="Trazado_1028565" data-name="Trazado 1028565" d="M54.958,120.871v-7.78H7.5v30.768a2.906,2.906,0,0,0,2.906,2.906h3.778" transform="translate(0 -71.375)" fill="none" stroke="#000" stroke-linecap="round" stroke-linejoin="round" stroke-miterlimit="10" stroke-width="1.5"/>
      <line id="Línea_753" data-name="Línea 753" x2="9.565" transform="translate(18.252 75.389)" fill="none" stroke="#000" stroke-linecap="round" stroke-linejoin="round" stroke-miterlimit="10" stroke-width="1.5"/>
      <path id="Trazado_1028566" data-name="Trazado 1028566" d="M52.052,48.062H10.406A2.906,2.906,0,0,0,7.5,50.968v4.653H54.958V50.968A2.906,2.906,0,0,0,52.052,48.062Z" transform="translate(0 -13.905)" fill="#fe646f"/>
      <path id="Trazado_1028567" data-name="Trazado 1028567" d="M353.857,48.062H349a2.906,2.906,0,0,1,2.906,2.906v4.653h4.857V50.968A2.906,2.906,0,0,0,353.857,48.062Z" transform="translate(-301.805 -13.905)" fill="#fd4755"/>
      <path id="Trazado_1028568" data-name="Trazado 1028568" d="M40.685,48.062H10.406A2.906,2.906,0,0,0,7.5,50.968v4.653H54.958V50.968a2.906,2.906,0,0,0-2.906-2.906h-7.3" transform="translate(0 -13.905)" fill="none" stroke="#000" stroke-linecap="round" stroke-linejoin="round" stroke-miterlimit="10" stroke-width="1.5"/>
      <g id="Grupo_1173407" data-name="Grupo 1173407" transform="translate(13.463 45.67)">
        <g id="Grupo_1173401" data-name="Grupo 1173401">
          <path id="Trazado_1028569" data-name="Trazado 1028569" d="M63.937,152.824H59.384a.581.581,0,0,1-.581-.581V147.69a.581.581,0,0,1,.581-.581h4.553a.581.581,0,0,1,.581.581v4.553A.581.581,0,0,1,63.937,152.824Z" transform="translate(-58.803 -147.109)" fill="#e1d3ce"/>
          <path id="Trazado_1028570" data-name="Trazado 1028570" d="M84.437,147.109H82a.581.581,0,0,1,.581.581v4.553a.581.581,0,0,1-.581.581h2.437a.581.581,0,0,0,.581-.581V147.69A.581.581,0,0,0,84.437,147.109Z" transform="translate(-79.304 -147.109)" fill="#cdbfba"/>
          <path id="Trazado_1028571" data-name="Trazado 1028571" d="M63.937,237.261H59.384a.581.581,0,0,1-.581-.581v-4.553a.581.581,0,0,1,.581-.581h4.553a.581.581,0,0,1,.581.581v4.553A.581.581,0,0,1,63.937,237.261Z" transform="translate(-58.803 -221.731)" fill="#e1d3ce"/>
          <path id="Trazado_1028572" data-name="Trazado 1028572" d="M84.437,231.546H82a.581.581,0,0,1,.581.581v4.553a.581.581,0,0,1-.581.581h2.437a.581.581,0,0,0,.581-.581v-4.553A.581.581,0,0,0,84.437,231.546Z" transform="translate(-79.304 -221.731)" fill="#cdbfba"/>
          <path id="Trazado_1028573" data-name="Trazado 1028573" d="M63.937,321.7H59.384a.581.581,0,0,1-.581-.581v-4.553a.581.581,0,0,1,.581-.581h4.553a.581.581,0,0,1,.581.581v4.553A.581.581,0,0,1,63.937,321.7Z" transform="translate(-58.803 -296.353)" fill="none" stroke="#000" stroke-linecap="round" stroke-linejoin="round" stroke-miterlimit="10" stroke-width="1.5"/>
        </g>
        <g id="Grupo_1173402" data-name="Grupo 1173402" transform="translate(9.939)">
          <path id="Trazado_1028574" data-name="Trazado 1028574" d="M149.442,152.824h-4.552a.581.581,0,0,1-.581-.581V147.69a.581.581,0,0,1,.581-.581h4.552a.581.581,0,0,1,.581.581v4.553A.581.581,0,0,1,149.442,152.824Z" transform="translate(-144.308 -147.109)" fill="#e1d3ce"/>
          <path id="Trazado_1028575" data-name="Trazado 1028575" d="M170.38,147.109H168a.581.581,0,0,1,.581.581v4.553a.581.581,0,0,1-.581.581h2.38a.581.581,0,0,0,.581-.581V147.69A.581.581,0,0,0,170.38,147.109Z" transform="translate(-165.246 -147.109)" fill="#cdbfba"/>
          <path id="Trazado_1028576" data-name="Trazado 1028576" d="M149.442,237.261h-4.552a.581.581,0,0,1-.581-.581v-4.553a.581.581,0,0,1,.581-.581h4.552a.581.581,0,0,1,.581.581v4.553A.581.581,0,0,1,149.442,237.261Z" transform="translate(-144.308 -221.731)" fill="#e1d3ce"/>
          <path id="Trazado_1028577" data-name="Trazado 1028577" d="M170.38,231.546H168a.581.581,0,0,1,.581.581v4.553a.581.581,0,0,1-.581.581h2.38a.581.581,0,0,0,.581-.581v-4.553A.581.581,0,0,0,170.38,231.546Z" transform="translate(-165.246 -221.731)" fill="#cdbfba"/>
          <path id="Trazado_1028578" data-name="Trazado 1028578" d="M150,316.41a.58.58,0,0,0-.558-.428h-4.552a.581.581,0,0,0-.581.581v4.553a.581.581,0,0,0,.581.581h3.483A12.228,12.228,0,0,1,150,316.41Z" transform="translate(-144.308 -296.353)" fill="#e1d3ce"/>
          <path id="Trazado_1028579" data-name="Trazado 1028579" d="M149.941,316.273a.576.576,0,0,0-.5-.291h-4.552a.581.581,0,0,0-.581.581v4.553a.581.581,0,0,0,.581.581h3.366" transform="translate(-144.308 -296.353)" fill="none" stroke="#000" stroke-linecap="round" stroke-linejoin="round" stroke-miterlimit="10" stroke-width="1.5"/>
        </g>
        <g id="Grupo_1173403" data-name="Grupo 1173403" transform="translate(19.878)">
          <path id="Trazado_1028580" data-name="Trazado 1028580" d="M234.948,152.824H230.4a.581.581,0,0,1-.581-.581V147.69a.581.581,0,0,1,.581-.581h4.552a.581.581,0,0,1,.581.581v4.553A.581.581,0,0,1,234.948,152.824Z" transform="translate(-229.814 -147.109)" fill="#e1d3ce"/>
          <path id="Trazado_1028581" data-name="Trazado 1028581" d="M255.439,147.109H253a.581.581,0,0,1,.581.581v4.553a.581.581,0,0,1-.581.581h2.439a.581.581,0,0,0,.581-.581V147.69A.581.581,0,0,0,255.439,147.109Z" transform="translate(-250.305 -147.109)" fill="#cdbfba"/>
          <path id="Trazado_1028582" data-name="Trazado 1028582" d="M230.194,237.222a12.226,12.226,0,0,1,5.335-1.56v-3.536a.581.581,0,0,0-.581-.581H230.4a.581.581,0,0,0-.581.581v4.552A.58.58,0,0,0,230.194,237.222Z" transform="translate(-229.814 -221.73)" fill="#e1d3ce"/>
          <path id="Trazado_1028583" data-name="Trazado 1028583" d="M255.439,231.546H253a.581.581,0,0,1,.581.581v3.92a12.249,12.249,0,0,1,2.439-.384v-3.536A.581.581,0,0,0,255.439,231.546Z" transform="translate(-250.305 -221.731)" fill="#cdbfba"/>
        </g>
        <path id="Trazado_1028584" data-name="Trazado 1028584" d="M63.937,152.824H59.384a.581.581,0,0,1-.581-.581V147.69a.581.581,0,0,1,.581-.581h4.553a.581.581,0,0,1,.581.581v4.553A.581.581,0,0,1,63.937,152.824Z" transform="translate(-58.803 -147.109)" fill="none" stroke="#000" stroke-linecap="round" stroke-linejoin="round" stroke-miterlimit="10" stroke-width="1.5"/>
        <path id="Trazado_1028585" data-name="Trazado 1028585" d="M63.937,237.261H59.384a.581.581,0,0,1-.581-.581v-4.553a.581.581,0,0,1,.581-.581h4.553a.581.581,0,0,1,.581.581v4.553A.581.581,0,0,1,63.937,237.261Z" transform="translate(-58.803 -221.731)" fill="none" stroke="#000" stroke-linecap="round" stroke-linejoin="round" stroke-miterlimit="10" stroke-width="1.5"/>
        <path id="Trazado_1028586" data-name="Trazado 1028586" d="M149.442,152.824h-4.552a.581.581,0,0,1-.581-.581V147.69a.581.581,0,0,1,.581-.581h4.552a.581.581,0,0,1,.581.581v4.553A.581.581,0,0,1,149.442,152.824Z" transform="translate(-134.369 -147.109)" fill="none" stroke="#000" stroke-linecap="round" stroke-linejoin="round" stroke-miterlimit="10" stroke-width="1.5"/>
        <path id="Trazado_1028587" data-name="Trazado 1028587" d="M149.442,237.261h-4.552a.581.581,0,0,1-.581-.581v-4.553a.581.581,0,0,1,.581-.581h4.552a.581.581,0,0,1,.581.581v4.553A.581.581,0,0,1,149.442,237.261Z" transform="translate(-134.369 -221.731)" fill="none" stroke="#000" stroke-linecap="round" stroke-linejoin="round" stroke-miterlimit="10" stroke-width="1.5"/>
        <g id="Grupo_1173404" data-name="Grupo 1173404" transform="translate(19.878)">
          <path id="Trazado_1028588" data-name="Trazado 1028588" d="M234.948,152.824H230.4a.581.581,0,0,1-.581-.581V147.69a.581.581,0,0,1,.581-.581h4.552a.581.581,0,0,1,.581.581v4.553A.581.581,0,0,1,234.948,152.824Z" transform="translate(-229.814 -147.109)" fill="none" stroke="#000" stroke-linecap="round" stroke-linejoin="round" stroke-miterlimit="10" stroke-width="1.5"/>
          <path id="Trazado_1028589" data-name="Trazado 1028589" d="M235.528,235.546v-3.419a.581.581,0,0,0-.581-.581h-4.552a.581.581,0,0,0-.581.581v4.553a.575.575,0,0,0,.253.476" transform="translate(-229.813 -221.731)" fill="none" stroke="#000" stroke-linecap="round" stroke-linejoin="round" stroke-miterlimit="10" stroke-width="1.5"/>
        </g>
        <g id="Grupo_1173406" data-name="Grupo 1173406" transform="translate(29.816)">
          <path id="Trazado_1028590" data-name="Trazado 1028590" d="M315.9,152.824h2.889v-.494a1.28,1.28,0,0,1,1.279-1.279h.966V147.69a.581.581,0,0,0-.581-.581H315.9a.581.581,0,0,0-.581.581v4.553A.581.581,0,0,0,315.9,152.824Z" transform="translate(-315.318 -147.109)" fill="#b9acac"/>
          <g id="Grupo_1173405" data-name="Grupo 1173405" transform="translate(2.753)">
            <path id="Trazado_1028591" data-name="Trazado 1028591" d="M341.381,147.109H339a.581.581,0,0,1,.581.581v5.134h.137v-.494A1.28,1.28,0,0,1,341,151.051h.966V147.69A.581.581,0,0,0,341.381,147.109Z" transform="translate(-339 -147.109)" fill="#9e9797"/>
          </g>
          <path id="Trazado_1028592" data-name="Trazado 1028592" d="M321.034,150.935V147.69a.581.581,0,0,0-.581-.581H315.9a.581.581,0,0,0-.581.581v4.553a.581.581,0,0,0,.581.581h2.773" transform="translate(-315.319 -147.109)" fill="none" stroke="#000" stroke-linecap="round" stroke-linejoin="round" stroke-miterlimit="10" stroke-width="1.5"/>
          <path id="Trazado_1028593" data-name="Trazado 1028593" d="M317.889,237.262h1.831a1.275,1.275,0,0,1,.349-.05v-.233a1.28,1.28,0,0,1-1.279-1.279v-2.979a1.28,1.28,0,0,1,.775-1.175H315.9a.581.581,0,0,0-.581.581v4.031A12.193,12.193,0,0,1,317.889,237.262Z" transform="translate(-315.32 -221.732)" fill="#b9acac"/>
          <path id="Trazado_1028594" data-name="Trazado 1028594" d="M319.318,231.546H315.9a.581.581,0,0,0-.581.581v3.909" transform="translate(-315.319 -221.731)" fill="none" stroke="#000" stroke-linecap="round" stroke-linejoin="round" stroke-miterlimit="10" stroke-width="1.5"/>
        </g>
      </g>
      <line id="Línea_754" data-name="Línea 754" y1="5.218" transform="translate(13.463 32.328)" fill="none" stroke="#000" stroke-linecap="round" stroke-linejoin="round" stroke-miterlimit="10" stroke-width="1.5"/>
      <line id="Línea_755" data-name="Línea 755" y1="5.218" transform="translate(48.995 32.328)" fill="none" stroke="#000" stroke-linecap="round" stroke-linejoin="round" stroke-miterlimit="10" stroke-width="1.5"/>
      <g id="Grupo_1173408" data-name="Grupo 1173408" transform="translate(46.634 49.495)">
        <path id="Trazado_1028595" data-name="Trazado 1028595" d="M361.417,185.792H345.572a1.4,1.4,0,0,1-1.395-1.395v-2.979a1.4,1.4,0,0,1,1.395-1.395h15.846a1.4,1.4,0,0,1,1.395,1.395V184.4A1.4,1.4,0,0,1,361.417,185.792Z" transform="translate(-344.177 -180.023)" fill="#ffd15b"/>
        <path id="Trazado_1028596" data-name="Trazado 1028596" d="M455.824,180.023H451a1.4,1.4,0,0,1,1.395,1.395V184.4A1.4,1.4,0,0,1,451,185.792h4.824a1.4,1.4,0,0,0,1.395-1.395v-2.979A1.4,1.4,0,0,0,455.824,180.023Z" transform="translate(-438.583 -180.023)" fill="#ffc344"/>
        <path id="Trazado_1028597" data-name="Trazado 1028597" d="M361.417,185.792H345.572a1.4,1.4,0,0,1-1.395-1.395v-2.979a1.4,1.4,0,0,1,1.395-1.395h15.846a1.4,1.4,0,0,1,1.395,1.395V184.4A1.4,1.4,0,0,1,361.417,185.792Z" transform="translate(-344.177 -180.023)" fill="none" stroke="#000" stroke-linecap="round" stroke-linejoin="round" stroke-miterlimit="10" stroke-width="1.5"/>
        <path id="Trazado_1028598" data-name="Trazado 1028598" d="M361.417,229.653H345.572a1.4,1.4,0,0,0-1.395,1.395v2.979a1.4,1.4,0,0,0,1.395,1.395h15.846a1.4,1.4,0,0,0,1.395-1.395v-2.979A1.4,1.4,0,0,0,361.417,229.653Z" transform="translate(-344.177 -223.884)" fill="#ffc344"/>
        <path id="Trazado_1028599" data-name="Trazado 1028599" d="M455.824,229.653H451a1.4,1.4,0,0,1,1.395,1.395v2.979A1.4,1.4,0,0,1,451,235.422h4.824a1.4,1.4,0,0,0,1.395-1.395v-2.979A1.4,1.4,0,0,0,455.824,229.653Z" transform="translate(-438.583 -223.884)" fill="#feb237"/>
        <path id="Trazado_1028600" data-name="Trazado 1028600" d="M361.417,229.653H345.572a1.4,1.4,0,0,0-1.395,1.395v2.979a1.4,1.4,0,0,0,1.395,1.395h15.846a1.4,1.4,0,0,0,1.395-1.395v-2.979A1.4,1.4,0,0,0,361.417,229.653Z" transform="translate(-344.177 -223.884)" fill="none" stroke="#000" stroke-linecap="round" stroke-linejoin="round" stroke-miterlimit="10" stroke-width="1.5"/>
        <path id="Trazado_1028601" data-name="Trazado 1028601" d="M362.574,279.283H346.729a1.394,1.394,0,0,0-1.243.764,12.393,12.393,0,0,1,4.172,5.005h12.916a1.4,1.4,0,0,0,1.395-1.395v-2.979A1.4,1.4,0,0,0,362.574,279.283Z" transform="translate(-345.334 -267.745)" fill="#ffd15b"/>
        <path id="Trazado_1028602" data-name="Trazado 1028602" d="M455.824,279.283H451a1.4,1.4,0,0,1,1.395,1.395v2.979A1.4,1.4,0,0,1,451,285.052h4.824a1.4,1.4,0,0,0,1.395-1.395v-2.979A1.4,1.4,0,0,0,455.824,279.283Z" transform="translate(-438.583 -267.745)" fill="#ffc344"/>
        <line id="Línea_756" data-name="Línea 756" x2="3.892" transform="translate(4.456 17.306)" fill="none" stroke="#000" stroke-linecap="round" stroke-linejoin="round" stroke-miterlimit="10" stroke-width="1.5"/>
        <path id="Trazado_1028603" data-name="Trazado 1028603" d="M358.207,285.052h4.824a1.4,1.4,0,0,0,1.395-1.395v-2.979a1.4,1.4,0,0,0-1.395-1.395H347.186a1.393,1.393,0,0,0-1.183.658" transform="translate(-345.791 -267.745)" fill="none" stroke="#000" stroke-linecap="round" stroke-linejoin="round" stroke-miterlimit="10" stroke-width="1.5"/>
        <path id="Trazado_1028604" data-name="Trazado 1028604" d="M394.3,328.913H381.383a12.241,12.241,0,0,1,1.1,5.093c0,.227-.007.452-.019.675H394.3a1.4,1.4,0,0,0,1.395-1.395v-2.979A1.4,1.4,0,0,0,394.3,328.913Z" transform="translate(-377.058 -311.607)" fill="#ffc344"/>
        <path id="Trazado_1028605" data-name="Trazado 1028605" d="M455.824,328.913H451a1.4,1.4,0,0,1,1.395,1.395v2.979A1.4,1.4,0,0,1,451,334.682h4.824a1.4,1.4,0,0,0,1.395-1.395v-2.979A1.4,1.4,0,0,0,455.824,328.913Z" transform="translate(-438.583 -311.607)" fill="#feb237"/>
        <path id="Trazado_1028606" data-name="Trazado 1028606" d="M391.719,334.682h11.714a1.4,1.4,0,0,0,1.395-1.395v-2.979a1.4,1.4,0,0,0-1.395-1.395H398.61" transform="translate(-386.193 -311.607)" fill="none" stroke="#000" stroke-linecap="round" stroke-linejoin="round" stroke-miterlimit="10" stroke-width="1.5"/>
        <line id="Línea_757" data-name="Línea 757" x1="3.892" transform="translate(4.456 17.306)" fill="none" stroke="#000" stroke-linecap="round" stroke-linejoin="round" stroke-miterlimit="10" stroke-width="1.5"/>
        <path id="Trazado_1028607" data-name="Trazado 1028607" d="M388.813,378.543H376.982a12.231,12.231,0,0,1-1.806,5.769h13.637a1.4,1.4,0,0,0,1.395-1.395v-2.979A1.4,1.4,0,0,0,388.813,378.543Z" transform="translate(-371.573 -355.468)" fill="#ffd15b"/>
        <path id="Trazado_1028608" data-name="Trazado 1028608" d="M455.824,378.543H451a1.4,1.4,0,0,1,1.395,1.395v2.979A1.4,1.4,0,0,1,451,384.312h4.824a1.4,1.4,0,0,0,1.395-1.395v-2.979A1.4,1.4,0,0,0,455.824,378.543Z" transform="translate(-438.583 -355.468)" fill="#ffc344"/>
        <path id="Trazado_1028609" data-name="Trazado 1028609" d="M376.4,384.313H389.9a1.4,1.4,0,0,0,1.395-1.395v-2.979a1.4,1.4,0,0,0-1.395-1.395H378.182" transform="translate(-372.656 -355.469)" fill="none" stroke="#000" stroke-linecap="round" stroke-linejoin="round" stroke-miterlimit="10" stroke-width="1.5"/>
      </g>
      <g id="Grupo_1173411" data-name="Grupo 1173411" transform="translate(22.169 54.316)">
        <g id="Grupo_1173410" data-name="Grupo 1173410" transform="translate(0 0)">
          <circle id="Elipse_11835" data-name="Elipse 11835" cx="12.43" cy="12.43" r="12.43" transform="translate(0 17.579) rotate(-45)" fill="#ffc344"/>
          <path id="Trazado_1028610" data-name="Trazado 1028610" d="M266.38,265.794a12.49,12.49,0,0,0-2.441.24,12.432,12.432,0,0,1,0,24.38,12.431,12.431,0,1,0,2.441-24.62Z" transform="translate(-248.801 -260.645)" fill="#feb237"/>
          <circle id="Elipse_11836" data-name="Elipse 11836" cx="12.43" cy="12.43" r="12.43" transform="translate(0 17.579) rotate(-45)" fill="none" stroke="#000" stroke-linecap="round" stroke-linejoin="round" stroke-miterlimit="10" stroke-width="1.5"/>
          <g id="Grupo_1173409" data-name="Grupo 1173409" transform="translate(13.849 10.487)">
            <path id="Trazado_1028611" data-name="Trazado 1028611" d="M260.307,331.361a2.211,2.211,0,0,0-2.211-2.211h-3.039a2.211,2.211,0,0,0-2.211,2.211v.645a2.211,2.211,0,0,0,2.211,2.211H258.1a2.211,2.211,0,0,1,2.211,2.211v.645a2.211,2.211,0,0,1-2.211,2.211h-3.039a2.211,2.211,0,0,1-2.211-2.211" transform="translate(-252.846 -327.124)" fill="none" stroke="#000" stroke-linecap="round" stroke-linejoin="round" stroke-miterlimit="10" stroke-width="1.5"/>
            <line id="Línea_758" data-name="Línea 758" y2="2.026" transform="translate(3.73)" fill="none" stroke="#000" stroke-linecap="round" stroke-linejoin="round" stroke-miterlimit="10" stroke-width="1.5"/>
            <line id="Línea_759" data-name="Línea 759" y2="2.026" transform="translate(3.73 12.158)" fill="none" stroke="#000" stroke-linecap="round" stroke-linejoin="round" stroke-miterlimit="10" stroke-width="1.5"/>
          </g>
          <path id="Trazado_1028612" data-name="Trazado 1028612" d="M343.97,342.079a8.307,8.307,0,0,0,0-9.284" transform="translate(-319.529 -319.858)" fill="none" stroke="#000" stroke-linecap="round" stroke-linejoin="round" stroke-miterlimit="10" stroke-width="1.5"/>
          <path id="Trazado_1028613" data-name="Trazado 1028613" d="M215.125,332.8a8.307,8.307,0,0,0,0,9.284" transform="translate(-204.407 -319.858)" fill="none" stroke="#000" stroke-linecap="round" stroke-linejoin="round" stroke-miterlimit="10" stroke-width="1.5"/>
        </g>
      </g>
    </g>
  </g>
</svg>
