<svg xmlns="http://www.w3.org/2000/svg" xmlns:xlink="http://www.w3.org/1999/xlink" width="108" height="108" viewBox="0 0 108 108">
  <defs>
    <filter id="Trazado_904820" x="0" y="0" width="108" height="108" filterUnits="userSpaceOnUse">
      <feOffset dy="3" input="SourceAlpha"/>
      <feGaussianBlur stdDeviation="3" result="blur"/>
      <feFlood flood-opacity="0.161"/>
      <feComposite operator="in" in2="blur"/>
      <feComposite in="SourceGraphic"/>
    </filter>
  </defs>
  <g id="Grupo_1172093" data-name="Grupo 1172093" transform="translate(9 6)">
    <g id="Grupo_1171910" data-name="Grupo 1171910" transform="translate(0)">
      <g id="Grupo_1167341" data-name="Grupo 1167341" transform="translate(0)">
        <g id="Grupo_1166792" data-name="Grupo 1166792" transform="translate(0)">
          <g transform="matrix(1, 0, 0, 1, -9, -6)" filter="url(#Trazado_904820)">
            <g id="Trazado_904820-2" data-name="Trazado 904820" transform="translate(9 6)" fill="#fff4e6">
              <path d="M 44.99999618530273 88.50003051757812 C 39.12687301635742 88.50003051757812 33.43022155761719 87.35010528564453 28.06829643249512 85.08219909667969 C 22.88852119445801 82.89134216308594 18.23629570007324 79.75461578369141 14.24084663391113 75.75916290283203 C 10.24540901184082 71.76371765136719 7.108683586120605 67.11150360107422 4.917821407318115 61.93172836303711 C 2.649921178817749 56.56978988647461 1.499996185302734 50.87313842773438 1.499996185302734 45.00001525878906 C 1.499996185302734 39.12689208984375 2.649921178817749 33.43024063110352 4.917821407318115 28.06831550598145 C 7.108683586120605 22.88854026794434 10.24540901184082 18.23631477355957 14.24084663391113 14.24086570739746 C 18.23629570007324 10.24541568756104 22.88852119445801 7.10869026184082 28.06829643249512 4.917840480804443 C 33.43022155761719 2.649927854537964 39.12687301635742 1.50000274181366 44.99999618530273 1.50000274181366 C 50.87311935424805 1.50000274181366 56.56977081298828 2.649927854537964 61.93169784545898 4.917840480804443 C 67.11147308349609 7.10869026184082 71.76369476318359 10.24541568756104 75.75914764404297 14.24086570739746 C 79.75458526611328 18.23631477355957 82.89131164550781 22.88854026794434 85.08216857910156 28.06831550598145 C 87.35007476806641 33.43024063110352 88.5 39.12689208984375 88.5 45.00001525878906 C 88.5 50.87313842773438 87.35007476806641 56.56978988647461 85.08216857910156 61.93172836303711 C 82.89131164550781 67.11150360107422 79.75458526611328 71.76371765136719 75.75914764404297 75.75916290283203 C 71.76369476318359 79.75461578369141 67.11147308349609 82.89134216308594 61.93169784545898 85.08219909667969 C 56.56977081298828 87.35010528564453 50.87311935424805 88.50003051757812 44.99999618530273 88.50003051757812 Z" stroke="none"/>
              <path d="M 44.99999618530273 3 C 39.32870864868164 3 33.82865142822266 4.110061645507812 28.65262603759766 6.299346923828125 C 23.65165710449219 8.414573669433594 19.15968322753906 11.44334411621094 15.301513671875 15.301513671875 C 11.44333648681641 19.15968322753906 8.414566040039062 23.65165710449219 6.299339294433594 28.65262985229492 C 4.110054016113281 33.82867050170898 2.999992370605469 39.32872772216797 2.999992370605469 45.00001525878906 C 2.999992370605469 50.67130279541016 4.110054016113281 56.17136001586914 6.299339294433594 61.34738922119141 C 8.414566040039062 66.34837341308594 11.44333648681641 70.84033203125 15.301513671875 74.69850158691406 C 19.15968322753906 78.55668640136719 23.65165710449219 81.58545684814453 28.65262603759766 83.70068359375 C 33.82865142822266 85.88996887207031 39.32870864868164 87.00003051757812 44.99999618530273 87.00003051757812 C 50.67128372192383 87.00003051757812 56.17134094238281 85.88996887207031 61.34736633300781 83.70068359375 C 66.34834289550781 81.58545684814453 70.84030914306641 78.55668640136719 74.69847869873047 74.69850158691406 C 78.55665588378906 70.84033203125 81.58542633056641 66.34837341308594 83.70065307617188 61.34738922119141 C 85.88993835449219 56.17136001586914 87 50.67130279541016 87 45.00001525878906 C 87 39.32872772216797 85.88993835449219 33.82867050170898 83.70065307617188 28.65262985229492 C 81.58542633056641 23.65165710449219 78.55665588378906 19.15968322753906 74.69847869873047 15.301513671875 C 70.84030914306641 11.44334411621094 66.34834289550781 8.414573669433594 61.34736633300781 6.299346923828125 C 56.17134094238281 4.110061645507812 50.67128372192383 3 44.99999618530273 3 M 44.99999618530273 0 C 69.85281372070312 0 90 20.14718627929688 90 45.00001525878906 C 90 69.85282897949219 69.85281372070312 90.00003051757812 44.99999618530273 90.00003051757812 C 20.14717864990234 90.00003051757812 -7.62939453125e-06 69.85282897949219 -7.62939453125e-06 45.00001525878906 C -7.62939453125e-06 20.14718627929688 20.14717864990234 0 44.99999618530273 0 Z" stroke="none" fill="#ff9d1c"/>
            </g>
          </g>
        </g>
      </g>
    </g>
    <g id="salary_7557051" transform="translate(18.074 18.074)">
      <g id="Grupo_1172091" data-name="Grupo 1172091" transform="translate(0.802 0.802)">
        <path id="Trazado_1026081" data-name="Trazado 1026081" d="M33.124,7,7,29.916,33.124,48.248,59.248,29.916Z" transform="translate(-7 -7)" fill="#fcbe00"/>
        <path id="Trazado_1026082" data-name="Trazado 1026082" d="M61.415,7H33V38.278l14.208,9.97,14.208-9.97Z" transform="translate(-21.084 -7)" fill="#55c225"/>
        <path id="Trazado_1026083" data-name="Trazado 1026083" d="M62,19.5A5.5,5.5,0,0,1,56.5,14h-11A5.5,5.5,0,0,1,40,19.5V44.321L51,52.04l11-7.719Z" transform="translate(-24.876 -10.792)" fill="#70d940"/>
        <circle id="Elipse_11788" data-name="Elipse 11788" cx="7.791" cy="7.791" r="7.791" transform="translate(18.333 17.416)" fill="#55c225"/>
        <path id="Trazado_1026084" data-name="Trazado 1026084" d="M57.415,86.332A1.833,1.833,0,0,0,59.248,84.5V57L33.124,75.333,7,57V84.5a1.833,1.833,0,0,0,1.833,1.833Z" transform="translate(-7 -34.084)" fill="#ffd92e"/>
        <path id="Trazado_1026085" data-name="Trazado 1026085" d="M59.352,101.236l-18-15.792L33.8,90.74l-7.547-5.3-18,15.792a1.823,1.823,0,0,0,1.258.5H58.095a1.823,1.823,0,0,0,1.258-.5Z" transform="translate(-7.68 -49.492)" fill="#fcbe00"/>
      </g>
      <g id="Grupo_1172092" data-name="Grupo 1172092" transform="translate(0)">
        <path id="Trazado_1026086" data-name="Trazado 1026086" d="M62.437,51.843a8.593,8.593,0,1,0-8.593,8.593A8.593,8.593,0,0,0,62.437,51.843Zm-15.583,0a6.989,6.989,0,1,1,6.989,6.989A6.989,6.989,0,0,1,46.854,51.843Z" transform="translate(-26.917 -25.834)"/>
        <path id="Trazado_1026087" data-name="Trazado 1026087" d="M54.58,55.229a.8.8,0,0,0-.8.8v1.49h-.726a.8.8,0,0,0,0,1.6h.729a2.328,2.328,0,1,0,4.656-.038V57.559a.726.726,0,0,1,1.451,0v3.056a.8.8,0,0,0,1.6,0v-1.49h.726a.8.8,0,0,0,0-1.6h-.729a2.328,2.328,0,1,0-4.656.038v1.528a.726.726,0,0,1-1.451,0V56.031A.8.8,0,0,0,54.58,55.229Z" transform="translate(-30.709 -32.313)"/>
        <path id="Trazado_1026088" data-name="Trazado 1026088" d="M120.854,93.845V91.566a.8.8,0,0,0-1.6,0v2.279a.8.8,0,0,0,1.6,0Z" transform="translate(-67.002 -51.572)"/>
        <path id="Trazado_1026089" data-name="Trazado 1026089" d="M11.757,23.963a.8.8,0,0,0-1.132-.074l-5.1,4.476a.8.8,0,0,0-.273.6v27.5A2.639,2.639,0,0,0,7.885,59.1H56.467A2.639,2.639,0,0,0,59.1,56.467V51.7a.8.8,0,1,0-1.6,0v4.766A1.033,1.033,0,0,1,56.467,57.5H7.885a1.033,1.033,0,0,1-1.031-1.031V30.51L23.333,42.076,11.055,52.846a.8.8,0,1,0,1.058,1.205L24.684,43.024l7.033,4.933a.8.8,0,0,0,.921,0l7.029-4.934L52.239,54.05A.8.8,0,1,0,53.3,52.845L41.021,42.076,57.5,30.51V41.067a.8.8,0,1,0,1.6,0v-12.1a.8.8,0,0,0-.275-.6L47.186,18.152V6.052a.8.8,0,0,0-.8-.8H28.539a.8.8,0,0,0,0,1.6H45.582V36.913l-1.6,1.126V14.76a.8.8,0,0,0-.8-.8,4.7,4.7,0,0,1-4.7-4.7.8.8,0,0,0-.8-.8h-11a.8.8,0,0,0-.8.8,4.7,4.7,0,0,1-4.7,4.7.8.8,0,0,0-.8.8V38.039l-1.6-1.126V6.854h5.591a.8.8,0,0,0,0-1.6H17.968a.8.8,0,0,0-.8.8v12.1L13.8,21.1a.8.8,0,1,0,1.058,1.206l2.308-2.025v15.5L7.348,28.9l4.335-3.8A.8.8,0,0,0,11.757,23.963Zm35.428-3.678L57,28.9l-9.817,6.89ZM21.978,15.511a6.316,6.316,0,0,0,5.45-5.449h9.5a6.316,6.316,0,0,0,5.449,5.449V39.164l-10.2,7.156-10.2-7.156Z" transform="translate(-5.25 -5.25)"/>
      </g>
    </g>
  </g>
</svg>
