<svg xmlns="http://www.w3.org/2000/svg" xmlns:xlink="http://www.w3.org/1999/xlink" width="106" height="106" viewBox="0 0 106 106">
  <defs>
    <filter id="Trazado_982547" x="0" y="0" width="106" height="106" filterUnits="userSpaceOnUse">
      <feOffset dy="3" input="SourceAlpha"/>
      <feGaussianBlur stdDeviation="3" result="blur"/>
      <feFlood flood-opacity="0.161"/>
      <feComposite operator="in" in2="blur"/>
      <feComposite in="SourceGraphic"/>
    </filter>
  </defs>
  <g id="Grupo_1173352" data-name="Grupo 1173352" transform="translate(-171 -1440)">
    <g id="Grupo_1173175" data-name="Grupo 1173175" transform="translate(0 -2538)">
      <g id="Grupo_1171932" data-name="Grupo 1171932" transform="translate(0 2921)">
        <g id="Grupo_1167337" data-name="Grupo 1167337" transform="translate(180 1063)">
          <g id="Grupo_1166720" data-name="Grupo 1166720" transform="translate(0)">
            <g id="Grupo_1164305" data-name="Grupo 1164305">
              <g id="Grupo_1163948" data-name="Grupo 1163948">
                <g id="Grupo_1158168" data-name="Grupo 1158168">
                  <g id="Grupo_1152576" data-name="Grupo 1152576">
                    <g id="Grupo_1148633" data-name="Grupo 1148633">
                      <g id="Grupo_1148525" data-name="Grupo 1148525">
                        <g transform="matrix(1, 0, 0, 1, -9, -6)" filter="url(#Trazado_982547)">
                          <g id="Trazado_982547-2" data-name="Trazado 982547" transform="translate(9 6)" fill="#e9f9fd">
                            <path d="M 44 86.5 C 38.26187515258789 86.5 32.69618606567383 85.37651062011719 27.45755004882812 83.16075897216797 C 22.3968505859375 81.020263671875 17.85157585144043 77.95565032958984 13.94796276092529 74.05204010009766 C 10.04434967041016 70.1484375 6.979737281799316 65.6031494140625 4.839250087738037 60.54246139526367 C 2.62348747253418 55.30381393432617 1.5 49.73812484741211 1.5 44 C 1.5 38.26187515258789 2.62348747253418 32.69618606567383 4.839250087738037 27.45755004882812 C 6.979737281799316 22.3968505859375 10.04434967041016 17.85157585144043 13.94796276092529 13.94796276092529 C 17.85157585144043 10.04434967041016 22.3968505859375 6.979737281799316 27.45755004882812 4.839250087738037 C 32.69618606567383 2.62348747253418 38.26187515258789 1.5 44 1.5 C 49.73812484741211 1.5 55.30381393432617 2.62348747253418 60.54246139526367 4.839250087738037 C 65.6031494140625 6.979737281799316 70.1484375 10.04434967041016 74.05204010009766 13.94796276092529 C 77.95565032958984 17.85157585144043 81.020263671875 22.3968505859375 83.16075897216797 27.45755004882812 C 85.37651062011719 32.69618606567383 86.5 38.26187515258789 86.5 44 C 86.5 49.73812484741211 85.37651062011719 55.30381393432617 83.16075897216797 60.54246139526367 C 81.020263671875 65.6031494140625 77.95565032958984 70.1484375 74.05204010009766 74.05204010009766 C 70.1484375 77.95565032958984 65.6031494140625 81.020263671875 60.54246139526367 83.16075897216797 C 55.30381393432617 85.37651062011719 49.73812484741211 86.5 44 86.5 Z" stroke="none"/>
                            <path d="M 44 3 C 38.46371459960938 3 33.09462738037109 4.083610534667969 28.0418701171875 6.220756530761719 C 23.15997314453125 8.285614013671875 18.77495574951172 11.24228668212891 15.00862884521484 15.00862884521484 C 11.24228668212891 18.77495574951172 8.285614013671875 23.15997314453125 6.220756530761719 28.0418701171875 C 4.083610534667969 33.09462738037109 3 38.46371459960938 3 44 C 3 49.53628540039062 4.083610534667969 54.9053840637207 6.220756530761719 59.9581298828125 C 8.285614013671875 64.84002685546875 11.24228668212891 69.22504425048828 15.00862884521484 72.99138641357422 C 18.77495574951172 76.75771331787109 23.15997314453125 79.71438598632812 28.0418701171875 81.77925872802734 C 33.09462738037109 83.9163818359375 38.46371459960938 85 44 85 C 49.53628540039062 85 54.9053840637207 83.9163818359375 59.95814514160156 81.77925872802734 C 64.84002685546875 79.71438598632812 69.22504425048828 76.75771331787109 72.99138641357422 72.99138641357422 C 76.75771331787109 69.22504425048828 79.71438598632812 64.84002685546875 81.77925872802734 59.95814514160156 C 83.9163818359375 54.9053840637207 85 49.53628540039062 85 44 C 85 38.46371459960938 83.9163818359375 33.09462738037109 81.77925872802734 28.0418701171875 C 79.71438598632812 23.15997314453125 76.75771331787109 18.77495574951172 72.99138641357422 15.00862884521484 C 69.22504425048828 11.24228668212891 64.84002685546875 8.285614013671875 59.9581298828125 6.220756530761719 C 54.9053840637207 4.083610534667969 49.53628540039062 3 44 3 M 44 0 C 68.30054473876953 0 88 19.69947052001953 88 44 C 88 68.30054473876953 68.30054473876953 88 44 88 C 19.69947052001953 88 0 68.30054473876953 0 44 C 0 19.69947052001953 19.69947052001953 0 44 0 Z" stroke="none" fill="#1d7083"/>
                          </g>
                        </g>
                      </g>
                    </g>
                  </g>
                </g>
              </g>
            </g>
          </g>
        </g>
      </g>
    </g>
    <g id="rising_2719791" transform="translate(196.843 1462.843)">
      <g id="Grupo_1173362" data-name="Grupo 1173362" transform="translate(1.844 1.844)">
        <g id="Grupo_1173353" data-name="Grupo 1173353" transform="translate(45.564 28.689)">
          <path id="Trazado_1028496" data-name="Trazado 1028496" d="M56,36h5.063V57.938H56Z" transform="translate(-56 -36)" fill="#ff826e"/>
        </g>
        <g id="Grupo_1173354" data-name="Grupo 1173354" transform="translate(28.689 35.439)">
          <path id="Trazado_1028497" data-name="Trazado 1028497" d="M36,44h5.063V59.188H36Z" transform="translate(-36 -44)" fill="#ff826e"/>
        </g>
        <g id="Grupo_1173355" data-name="Grupo 1173355" transform="translate(37.127 32.064)">
          <path id="Trazado_1028498" data-name="Trazado 1028498" d="M46,40h5.063V58.563H46Z" transform="translate(-46 -40)" fill="#ff826e"/>
        </g>
        <g id="Grupo_1173356" data-name="Grupo 1173356" transform="translate(5.906)">
          <path id="Trazado_1028499" data-name="Trazado 1028499" d="M15.911,3.688A2.586,2.586,0,0,1,18.341,2H21.6a2.586,2.586,0,0,1,2.59,2.59v.177a2.64,2.64,0,0,1-.27,1.156l-3.105,6.2H12.375L9.439,7.712A2.544,2.544,0,0,1,9,6.278a2.586,2.586,0,0,1,2.59-2.59Z" transform="translate(-9 -2)" fill="#a0d468"/>
        </g>
        <g id="Grupo_1173357" data-name="Grupo 1173357" transform="translate(5.906 10.125)">
          <path id="Trazado_1028500" data-name="Trazado 1028500" d="M23.69,16.877a1.65,1.65,0,0,1-1.19.5H10.688A1.693,1.693,0,0,1,9,15.688,1.7,1.7,0,0,1,10.688,14H22.5a1.693,1.693,0,0,1,1.688,1.688A1.65,1.65,0,0,1,23.69,16.877Z" transform="translate(-9 -14)" fill="#ccd1d9"/>
        </g>
        <g id="Grupo_1173358" data-name="Grupo 1173358" transform="translate(0 13.501)">
          <path id="Trazado_1028501" data-name="Trazado 1028501" d="M17.188,45H8.961A13.491,13.491,0,0,1,2,33.188v-.177a13.49,13.49,0,0,1,3.13-8.64L10.438,18H20.563l5.307,6.371A13.49,13.49,0,0,1,29,33.011v.177a14.11,14.11,0,0,1-.118,1.806A13.521,13.521,0,0,1,22.04,45H17.188Z" transform="translate(-2 -18)" fill="#b4dd7f"/>
        </g>
        <g id="Grupo_1173359" data-name="Grupo 1173359" transform="translate(1.688 45.564)">
          <path id="Trazado_1028502" data-name="Trazado 1028502" d="M25.938,56a1.693,1.693,0,0,1,1.688,1.688v1.688a1.693,1.693,0,0,1-1.688,1.688H5.688A1.693,1.693,0,0,1,4,59.375V57.688A1.693,1.693,0,0,1,5.688,56H25.938Z" transform="translate(-4 -56)" fill="#ffc729"/>
        </g>
        <g id="Grupo_1173360" data-name="Grupo 1173360" transform="translate(1.688 40.502)">
          <path id="Trazado_1028503" data-name="Trazado 1028503" d="M24.251,50h1.688a1.693,1.693,0,0,1,1.688,1.688v1.688a1.693,1.693,0,0,1-1.688,1.688H5.688A1.693,1.693,0,0,1,4,53.375V51.688A1.693,1.693,0,0,1,5.688,50H24.251Z" transform="translate(-4 -50)" fill="#fcd770"/>
        </g>
        <g id="Grupo_1173361" data-name="Grupo 1173361" transform="translate(41.345 16.032)">
          <path id="Trazado_1028504" data-name="Trazado 1028504" d="M59.438,21,57.75,29.438l-3.375-3.375L51,22.688Z" transform="translate(-51 -21)" fill="#ff826e"/>
        </g>
      </g>
      <g id="Grupo_1173363" data-name="Grupo 1173363" transform="translate(1 1)">
        <path id="Trazado_1028505" data-name="Trazado 1028505" d="M18.286,33.679l-1.726-.432a2.473,2.473,0,0,1,.6-4.872h.117a2.475,2.475,0,0,1,2.472,2.473v.058l1.688-.058a4.164,4.164,0,0,0-3.375-4.081V25H16.375v1.767a4.158,4.158,0,0,0-.224,8.118l1.726.432a2.472,2.472,0,0,1-.6,4.871H17.16a2.475,2.475,0,0,1-2.472-2.473v-.9H13v.9A4.164,4.164,0,0,0,16.375,41.8v1.767h1.688V41.8a4.158,4.158,0,0,0,.224-8.117Z" transform="translate(-2.875 -4.749)"/>
        <path id="Trazado_1028506" data-name="Trazado 1028506" d="M46.564,29.689V51.627H44.877V33.064h-6.75V51.627H36.439V36.439h-6.75V51.627H27.846A2.5,2.5,0,0,0,28,50.783V49.1a2.515,2.515,0,0,0-.658-1.688A2.511,2.511,0,0,0,28,45.721V44.033A2.534,2.534,0,0,0,25.47,41.5h-.887a14.361,14.361,0,0,0,4.926-8.753l5.242-5.242,4.219,4.219,7.594-7.594,3.893,3.893L52.7,16.8,41.478,19.045l3.893,3.893-6.4,6.4L34.751,25.12l-5.07,5.07a14.365,14.365,0,0,0-3.318-9.016l-4.281-5.138a2.525,2.525,0,0,0-.831-4.912h-.322l2.491-4.982a3.454,3.454,0,0,0,.363-1.537V4.434A3.438,3.438,0,0,0,20.348,1H17.091A3.424,3.424,0,0,0,14.15,2.688h-3.81A3.434,3.434,0,0,0,7.484,8.027l2.066,3.1H9.438a2.525,2.525,0,0,0-.831,4.911L4.325,21.175A14.37,14.37,0,0,0,1,30.358v.175A14.357,14.357,0,0,0,6.1,41.5H5.219a2.534,2.534,0,0,0-2.531,2.531v1.688a2.515,2.515,0,0,0,.658,1.688A2.515,2.515,0,0,0,2.688,49.1v1.688a2.534,2.534,0,0,0,2.531,2.531h48.1V29.689Zm3.987-10.737L49.421,24.6l-4.52-4.52Zm-10.737,15.8h3.375V51.627H39.814Zm-8.438,3.375h3.375v13.5H31.376ZM8.888,7.091a1.747,1.747,0,0,1,1.453-2.716h3.322c0,.02-.006.039-.006.059V7.75h1.688V4.434a1.749,1.749,0,0,1,1.747-1.747h3.256a1.749,1.749,0,0,1,1.747,1.747v.173a1.756,1.756,0,0,1-.185.781l-2.868,5.737H11.577Zm.55,5.722H21.251a.844.844,0,1,1,0,1.688H9.438a.844.844,0,0,1,0-1.688ZM2.688,30.532v-.175a12.682,12.682,0,0,1,2.934-8.1l5.055-6.067h9.336l5.056,6.067A12.686,12.686,0,0,1,28,30.358v.175A12.67,12.67,0,0,1,21.652,41.5H9.035A12.671,12.671,0,0,1,2.688,30.532Zm1.688,13.5a.845.845,0,0,1,.844-.844h.844v1.688H7.75V43.189H9.438v1.688h1.688V43.189h1.688v1.688H14.5V43.189h1.688v1.688h1.688V43.189h1.688v1.688h1.688V43.189h1.688v1.688h1.688V43.189h.844a.845.845,0,0,1,.844.844v1.688a.845.845,0,0,1-.844.844H5.219a.845.845,0,0,1-.844-.844Zm20.251,7.594H5.219a.845.845,0,0,1-.844-.844V49.1a.845.845,0,0,1,.844-.844h.844V49.94H7.75V48.252H9.438V49.94h1.688V48.252h1.688V49.94H14.5V48.252h1.688V49.94h1.688V48.252h1.688V49.94h1.688V48.252h1.688V49.94h1.688V48.252h.844a.845.845,0,0,1,.844.844v1.688a.845.845,0,0,1-.844.844Zm27,0H48.252V31.376h3.375Z" transform="translate(-1 -1)"/>
        <path id="Trazado_1028507" data-name="Trazado 1028507" d="M47,5h1.688V6.688H47Z" transform="translate(-8.186 -1.625)"/>
        <path id="Trazado_1028508" data-name="Trazado 1028508" d="M47,9h1.688v1.688H47Z" transform="translate(-8.186 -2.25)"/>
        <path id="Trazado_1028509" data-name="Trazado 1028509" d="M49,7h1.688V8.688H49Z" transform="translate(-8.498 -1.937)"/>
        <path id="Trazado_1028510" data-name="Trazado 1028510" d="M45,7h1.688V8.688H45Z" transform="translate(-7.873 -1.937)"/>
        <path id="Trazado_1028511" data-name="Trazado 1028511" d="M43,14h1.688v1.688H43Z" transform="translate(-7.561 -3.031)"/>
        <path id="Trazado_1028512" data-name="Trazado 1028512" d="M43,18h1.688v1.688H43Z" transform="translate(-7.561 -3.656)"/>
        <path id="Trazado_1028513" data-name="Trazado 1028513" d="M45,16h1.688v1.688H45Z" transform="translate(-7.873 -3.343)"/>
        <path id="Trazado_1028514" data-name="Trazado 1028514" d="M41,16h1.688v1.688H41Z" transform="translate(-7.249 -3.343)"/>
        <path id="Trazado_1028515" data-name="Trazado 1028515" d="M57,10h1.688v1.688H57Z" transform="translate(-9.748 -2.406)"/>
        <path id="Trazado_1028516" data-name="Trazado 1028516" d="M57,14h1.688v1.688H57Z" transform="translate(-9.748 -3.031)"/>
        <path id="Trazado_1028517" data-name="Trazado 1028517" d="M59,12h1.688v1.688H59Z" transform="translate(-10.06 -2.718)"/>
        <path id="Trazado_1028518" data-name="Trazado 1028518" d="M55,12h1.688v1.688H55Z" transform="translate(-9.436 -2.718)"/>
        <path id="Trazado_1028519" data-name="Trazado 1028519" d="M36,20h1.688v1.688H36Z" transform="translate(-6.468 -3.968)"/>
        <path id="Trazado_1028520" data-name="Trazado 1028520" d="M36,24h1.688v1.688H36Z" transform="translate(-6.468 -4.593)"/>
        <path id="Trazado_1028521" data-name="Trazado 1028521" d="M38,22h1.688v1.688H38Z" transform="translate(-6.78 -4.281)"/>
        <path id="Trazado_1028522" data-name="Trazado 1028522" d="M34,22h1.688v1.688H34Z" transform="translate(-6.155 -4.281)"/>
        <path id="Trazado_1028523" data-name="Trazado 1028523" d="M33,5h1.688V6.688H33Z" transform="translate(-5.999 -1.625)"/>
        <path id="Trazado_1028524" data-name="Trazado 1028524" d="M33,9h1.688v1.688H33Z" transform="translate(-5.999 -2.25)"/>
        <path id="Trazado_1028525" data-name="Trazado 1028525" d="M35,7h1.688V8.688H35Z" transform="translate(-6.311 -1.937)"/>
        <path id="Trazado_1028526" data-name="Trazado 1028526" d="M31,7h1.688V8.688H31Z" transform="translate(-5.686 -1.937)"/>
      </g>
    </g>
  </g>
</svg>
