<svg xmlns="http://www.w3.org/2000/svg" width="31.707" height="31.716" viewBox="0 0 31.707 31.716">
  <path id="refund_13473076" d="M11.476,19.049A14.371,14.371,0,0,1,17.492,12.2a14.9,14.9,0,0,1,7.982-2.025l-.41-.413a.449.449,0,1,1,.638-.633l1.284,1.293a.449.449,0,0,1-.018.651l-1.337,1.2a.449.449,0,1,1-.6-.668l.586-.526A13.785,13.785,0,0,0,12.3,19.4a.449.449,0,1,1-.827-.351Zm8.059,18.462a13.778,13.778,0,0,1-8.324-13l.531.553a.45.45,0,0,0,.648-.623l-1.245-1.3a.449.449,0,0,0-.324-.138h0a.449.449,0,0,0-.325.141L9.244,24.479A.449.449,0,0,0,9.9,25.1l.411-.436a14.673,14.673,0,0,0,8.87,13.678.449.449,0,1,0,.356-.825Zm18.677-7.444a.449.449,0,0,0-.591.234,13.747,13.747,0,0,1-13,8.324l.555-.531a.449.449,0,1,0-.621-.65l-1.3,1.242a.449.449,0,0,0,0,.651l1.323,1.253a.449.449,0,1,0,.618-.653l-.436-.412.224,0a14.646,14.646,0,0,0,13.462-8.873.449.449,0,0,0-.235-.589Zm2.495-5.083a.449.449,0,0,0-.636,0l-.422.417a14.66,14.66,0,0,0-1.864-7.866A14.307,14.307,0,0,0,31.221,11.5a.449.449,0,0,0-.374.817,13.661,13.661,0,0,1,7.9,13.2l-.515-.576a.449.449,0,1,0-.67.6l1.2,1.339a.449.449,0,0,0,.321.15h.014a.449.449,0,0,0,.316-.13l1.3-1.281A.449.449,0,0,0,40.707,24.985ZM24.582,19.748v.965a3.353,3.353,0,0,0-.634.168,2.31,2.31,0,0,0-1.59,2.082,2.239,2.239,0,0,0,1.568,2.062l.014.005a5.893,5.893,0,0,0,1.194.271,2.248,2.248,0,0,1,1.637.735A1.122,1.122,0,0,1,27,27.2a1.642,1.642,0,0,1-1.388.929A2.289,2.289,0,0,1,22.873,26.6a.449.449,0,1,0-.876.2,2.911,2.911,0,0,0,2.584,2.209v.959a.449.449,0,0,0,.9,0v-.926c.083-.006.165-.014.247-.024a2.519,2.519,0,0,0,2.109-1.493,2.01,2.01,0,0,0-.375-2.064,3.105,3.105,0,0,0-2.194-1.049,5.065,5.065,0,0,1-1.011-.223,1.363,1.363,0,0,1-1-1.213,1.44,1.44,0,0,1,1-1.252,2.088,2.088,0,0,1,2.8,1.333.449.449,0,1,0,.841-.318A3.057,3.057,0,0,0,25.48,20.7v-.954a.449.449,0,1,0-.9,0Zm.4-2.434a7.544,7.544,0,1,1-7.544,7.544,7.544,7.544,0,0,1,7.544-7.544Zm0,.9a6.645,6.645,0,1,0,6.645,6.645,6.645,6.645,0,0,0-6.645-6.645Zm0-3.312a9.957,9.957,0,1,1-9.957,9.957A9.969,9.969,0,0,1,24.979,14.9Zm0,.9a9.058,9.058,0,1,0,9.058,9.058A9.069,9.069,0,0,0,24.979,15.8Z" transform="translate(-9.13 -9)"/>
</svg>
