<svg xmlns="http://www.w3.org/2000/svg" width="139.568" height="138.904" viewBox="0 0 139.568 138.904">
  <g id="accountant_14177816" transform="translate(-6.5 -8.446)">
    <g id="Grupo_1173345" data-name="Grupo 1173345" transform="translate(7.5 9.446)">
      <path id="Trazado_1028458" data-name="Trazado 1028458" d="M153.068,13.954h0a12.178,12.178,0,0,0-7.62,2.679l-1.038.832h0a13.736,13.736,0,0,0-11.181-8.019H112.735A13.167,13.167,0,0,0,99.568,22.613V50.741h65.679V26.134A12.179,12.179,0,0,0,153.068,13.954Z" transform="translate(-74.084 -9.446)" fill="#7e929b"/>
      <path id="Trazado_1028459" data-name="Trazado 1028459" d="M196.869,273.265l-13.232,9.66-13.232-9.66V248.542h26.464Z" transform="translate(-125.313 -182.361)" fill="#ffcebf"/>
      <path id="Trazado_1028460" data-name="Trazado 1028460" d="M143.067,106.621c-.665,0-3.045.009-3.045.009a11,11,0,0,1-11-11V92.477a5.748,5.748,0,0,0-7.14-5.577h0a56.032,56.032,0,0,1-27.138,0h0a5.748,5.748,0,0,0-7.14,5.577v3.151a11,11,0,0,1-11,11s-2.38-.009-3.045-.009a7.305,7.305,0,1,0,2.086,14.3,32.843,32.843,0,0,0,32.671,29.5h0a32.844,32.844,0,0,0,32.671-29.5,7.3,7.3,0,1,0,2.086-14.3Z" transform="translate(-49.986 -65.336)" fill="#ffdfcf"/>
      <path id="Trazado_1028461" data-name="Trazado 1028461" d="M260.624,372.916l13.025,5.913a18.2,18.2,0,0,1,9.592,16.035v9.507a4.428,4.428,0,0,1-4.428,4.428H228.276l20.154-13.267,6.524-21.913Z" transform="translate(-167.166 -272.309)" fill="#50be9d"/>
      <path id="Trazado_1028462" data-name="Trazado 1028462" d="M332.923,404.372v-9.507a18.2,18.2,0,0,0-9.592-16.035l-13.025-5.913-5.67.7-6.524,21.913-1.14.751V400.5a8.3,8.3,0,0,0,8.3,8.3H328.5A4.428,4.428,0,0,0,332.923,404.372Z" transform="translate(-216.847 -272.309)" fill="#4bb390"/>
      <path id="Trazado_1028463" data-name="Trazado 1028463" d="M193.92,431.01h-9.681l-6.308,19.8h22.3Z" transform="translate(-130.756 -314.322)" fill="#c4417a"/>
      <path id="Trazado_1028464" data-name="Trazado 1028464" d="M30.117,372.916l-13.025,5.913A18.2,18.2,0,0,0,7.5,394.864v9.507a4.428,4.428,0,0,0,4.428,4.428H62.465L42.311,395.532l-6.524-21.913Z" transform="translate(-7.5 -272.309)" fill="#50be9d"/>
      <path id="Trazado_1028465" data-name="Trazado 1028465" d="M199.952,389.648H199.5a6.848,6.848,0,0,1-6.848-6.848V371.243H206.8V382.8A6.848,6.848,0,0,1,199.952,389.648Z" transform="translate(-141.403 -271.099)" fill="#da4084"/>
      <path id="Trazado_1028466" data-name="Trazado 1028466" d="M164.888,346.335l-5.829,10.527a3.334,3.334,0,0,1-5.575.4l-9-11.884,6.89-8.551Z" transform="translate(-106.564 -246.208)" fill="#eef7ff"/>
      <path id="Trazado_1028467" data-name="Trazado 1028467" d="M218.209,371.182l5.829,10.527a3.334,3.334,0,0,0,5.575.4l4.826-6.37" transform="translate(-159.885 -271.055)" fill="#eef7ff"/>
      <path id="Trazado_1028468" data-name="Trazado 1028468" d="M234.439,350.891l4.178-5.514-6.89-8.551-13.518,9.51" transform="translate(-159.885 -246.208)" fill="#eef7ff"/>
      <path id="Trazado_1028469" data-name="Trazado 1028469" d="M111.034,336.739s-11.6,24.164,10.521,45.879c0,0-19.2-3.215-28.251-17.37a4.305,4.305,0,0,1,.328-5.02h0a4.312,4.312,0,0,0,.267-5.11l-3.981-5.928a4.272,4.272,0,0,1,.664-5.513A29.105,29.105,0,0,1,111.034,336.739Z" transform="translate(-66.589 -246.127)" fill="#b1eba0"/>
      <path id="Trazado_1028470" data-name="Trazado 1028470" d="M238.8,336.739s11.6,24.164-10.521,45.879c0,0,19.2-3.215,28.251-17.37a4.305,4.305,0,0,0-.328-5.02h0a4.312,4.312,0,0,1-.267-5.11l3.981-5.928a4.272,4.272,0,0,0-.664-5.513A29.106,29.106,0,0,0,238.8,336.739Z" transform="translate(-167.167 -246.127)" fill="#b1eba0"/>
      <path id="Trazado_1028471" data-name="Trazado 1028471" d="M308.928,345.883a28.6,28.6,0,0,0-11.958-6.119V376.52c0,.113,0,.225.009.337a33.836,33.836,0,0,0,9.228-9.4,4.305,4.305,0,0,0-.328-5.02,4.312,4.312,0,0,1-.267-5.11l3.981-5.928A4.272,4.272,0,0,0,308.928,345.883Z" transform="translate(-216.846 -248.333)" fill="#8ddea9"/>
      <path id="Trazado_1028472" data-name="Trazado 1028472" d="M366.048,338.1h-33.2a8.3,8.3,0,0,1-8.3-8.3V283.457a8.3,8.3,0,0,1,8.3-8.3h33.2a8.3,8.3,0,0,1,8.3,8.3v46.336A8.3,8.3,0,0,1,366.048,338.1Z" transform="translate(-236.784 -201.606)" fill="#2d6ed2"/>
      <path id="Trazado_1028473" data-name="Trazado 1028473" d="M387.316,324.435H360.9a2.26,2.26,0,0,1-2.26-2.26V311.61a2.26,2.26,0,0,1,2.26-2.26h26.413a2.26,2.26,0,0,1,2.26,2.26v10.565A2.26,2.26,0,0,1,387.316,324.435Z" transform="translate(-261.448 -226.338)" fill="#eef7ff"/>
      <path id="Trazado_1028474" data-name="Trazado 1028474" d="M438.661,415.405h5.424a1.95,1.95,0,0,0,1.95-1.95V397.9a1.95,1.95,0,0,0-1.95-1.95h-5.424a1.95,1.95,0,0,0-1.95,1.95v15.555A1.95,1.95,0,0,0,438.661,415.405Z" transform="translate(-317.907 -288.967)" fill="#e162ac"/>
    </g>
    <g id="Grupo_1173346" data-name="Grupo 1173346" transform="translate(7.5 9.446)">
      <line id="Línea_738" data-name="Línea 738" x2="13.277" transform="translate(51.685 136.49)" fill="none" stroke="#000" stroke-linecap="round" stroke-linejoin="round" stroke-miterlimit="10" stroke-width="2"/>
      <line id="Línea_739" data-name="Línea 739" x1="3.93" y1="12.336" transform="translate(63.164 116.687)" fill="none" stroke="#000" stroke-linecap="round" stroke-linejoin="round" stroke-miterlimit="10" stroke-width="2"/>
      <line id="Línea_740" data-name="Línea 740" x1="4.056" y2="12.734" transform="translate(49.427 116.687)" fill="none" stroke="#000" stroke-linecap="round" stroke-linejoin="round" stroke-miterlimit="10" stroke-width="2"/>
      <path id="Trazado_1028475" data-name="Trazado 1028475" d="M30.117,372.916l-13.025,5.913A18.2,18.2,0,0,0,7.5,394.864v9.507a4.428,4.428,0,0,0,4.428,4.428H62.465" transform="translate(-7.5 -272.309)" fill="none" stroke="#000" stroke-linecap="round" stroke-linejoin="round" stroke-miterlimit="10" stroke-width="2"/>
      <line id="Línea_741" data-name="Línea 741" x1="39.276" transform="translate(61.11 136.49)" fill="none" stroke="#000" stroke-linecap="round" stroke-linejoin="round" stroke-miterlimit="10" stroke-width="2"/>
      <path id="Trazado_1028476" data-name="Trazado 1028476" d="M206.951,417.58a6.851,6.851,0,0,1-6.711,5.477h-.452a6.85,6.85,0,0,1-6.738-5.618" transform="translate(-141.69 -304.508)" fill="none" stroke="#000" stroke-linecap="round" stroke-linejoin="round" stroke-miterlimit="10" stroke-width="2"/>
      <path id="Trazado_1028477" data-name="Trazado 1028477" d="M196.869,309.71v7.532l-13.232,9.66-13.232-9.66v-7.891" transform="translate(-125.313 -226.339)" fill="none" stroke="#000" stroke-linecap="round" stroke-linejoin="round" stroke-miterlimit="10" stroke-width="2"/>
      <line id="Línea_742" data-name="Línea 742" y2="4.946" transform="translate(25.484 36.349)" fill="none" stroke="#000" stroke-linecap="round" stroke-linejoin="round" stroke-miterlimit="10" stroke-width="2"/>
      <path id="Trazado_1028478" data-name="Trazado 1028478" d="M165.247,50.742V26.135a12.179,12.179,0,0,0-12.179-12.179h0a12.178,12.178,0,0,0-7.62,2.679l-1.038.832h0a13.736,13.736,0,0,0-11.181-8.019H112.735A13.167,13.167,0,0,0,99.568,22.614V36.109" transform="translate(-74.084 -9.447)" fill="none" stroke="#000" stroke-linecap="round" stroke-linejoin="round" stroke-miterlimit="10" stroke-width="2"/>
      <path id="Trazado_1028479" data-name="Trazado 1028479" d="M143.067,106.621c-.665,0-3.045.009-3.045.009a11,11,0,0,1-11-11V92.477a5.748,5.748,0,0,0-7.14-5.577h0a56.032,56.032,0,0,1-27.138,0h0a5.748,5.748,0,0,0-7.14,5.577v3.151a11,11,0,0,1-11,11s-2.38-.009-3.045-.009a7.305,7.305,0,1,0,2.086,14.3,32.843,32.843,0,0,0,32.671,29.5h0a32.844,32.844,0,0,0,32.671-29.5,7.3,7.3,0,1,0,2.086-14.3Z" transform="translate(-49.986 -65.336)" fill="none" stroke="#000" stroke-linecap="round" stroke-linejoin="round" stroke-miterlimit="10" stroke-width="2"/>
      <line id="Línea_743" data-name="Línea 743" y1="2.064" transform="translate(25.652 53.527)" fill="none" stroke="#000" stroke-linecap="round" stroke-linejoin="round" stroke-miterlimit="10" stroke-width="2"/>
      <line id="Línea_744" data-name="Línea 744" y1="2.064" transform="translate(90.995 53.527)" fill="none" stroke="#000" stroke-linecap="round" stroke-linejoin="round" stroke-miterlimit="10" stroke-width="2"/>
      <path id="Trazado_1028480" data-name="Trazado 1028480" d="M174.159,371.182l-5.829,10.527a3.334,3.334,0,0,1-5.575.4l-5.456-7.2" transform="translate(-115.836 -271.055)" fill="none" stroke="#000" stroke-linecap="round" stroke-linejoin="round" stroke-miterlimit="10" stroke-width="2"/>
      <path id="Trazado_1028481" data-name="Trazado 1028481" d="M218.209,371.182l5.829,10.527a3.334,3.334,0,0,0,5.575.4l4.826-6.37" transform="translate(-159.885 -271.055)" fill="none" stroke="#000" stroke-linecap="round" stroke-linejoin="round" stroke-miterlimit="10" stroke-width="2"/>
      <path id="Trazado_1028482" data-name="Trazado 1028482" d="M111.034,336.739s-11.6,24.164,10.521,45.879c0,0-19.2-3.215-28.251-17.37a4.305,4.305,0,0,1,.328-5.02h0a4.312,4.312,0,0,0,.267-5.11l-3.981-5.928a4.272,4.272,0,0,1,.664-5.513A29.105,29.105,0,0,1,111.034,336.739Z" transform="translate(-66.589 -246.127)" fill="none" stroke="#000" stroke-linecap="round" stroke-linejoin="round" stroke-miterlimit="10" stroke-width="2"/>
      <path id="Trazado_1028483" data-name="Trazado 1028483" d="M228.276,463.095s17.118-2.867,26.647-15.1" transform="translate(-167.166 -326.604)" fill="none" stroke="#000" stroke-linecap="round" stroke-linejoin="round" stroke-miterlimit="10" stroke-width="2"/>
      <path id="Trazado_1028484" data-name="Trazado 1028484" d="M254.157,340.179a29.615,29.615,0,0,0-15.359-3.441s11.6,24.164-10.521,45.879" transform="translate(-167.167 -246.127)" fill="none" stroke="#000" stroke-linecap="round" stroke-linejoin="round" stroke-miterlimit="10" stroke-width="2"/>
      <line id="Línea_745" data-name="Línea 745" y2="1.989" transform="translate(46.697 45.826)" fill="none" stroke="#000" stroke-linecap="round" stroke-linejoin="round" stroke-miterlimit="10" stroke-width="2"/>
      <line id="Línea_746" data-name="Línea 746" y2="1.989" transform="translate(69.378 45.826)" fill="none" stroke="#000" stroke-linecap="round" stroke-linejoin="round" stroke-miterlimit="10" stroke-width="2"/>
      <path id="Trazado_1028485" data-name="Trazado 1028485" d="M204.716,236.2a10.829,10.829,0,0,1-16.915,0" transform="translate(-137.894 -173.436)" fill="none" stroke="#000" stroke-linecap="round" stroke-linejoin="round" stroke-miterlimit="10" stroke-width="2"/>
      <path id="Trazado_1028486" data-name="Trazado 1028486" d="M212.043,210.056a4.075,4.075,0,0,1-6.366,0" transform="translate(-150.822 -154.528)" fill="none" stroke="#000" stroke-linecap="round" stroke-linejoin="round" stroke-miterlimit="10" stroke-width="2"/>
      <path id="Trazado_1028487" data-name="Trazado 1028487" d="M438.661,415.405h5.424a1.95,1.95,0,0,0,1.95-1.95V397.9a1.95,1.95,0,0,0-1.95-1.95h-5.424a1.95,1.95,0,0,0-1.95,1.95v15.555A1.95,1.95,0,0,0,438.661,415.405Z" transform="translate(-317.907 -288.967)" fill="none" stroke="#000" stroke-linecap="round" stroke-linejoin="round" stroke-miterlimit="10" stroke-width="2"/>
      <path id="Trazado_1028488" data-name="Trazado 1028488" d="M374.352,314.146v15.647a8.3,8.3,0,0,1-8.3,8.3h-33.2a8.3,8.3,0,0,1-8.3-8.3V283.457a8.3,8.3,0,0,1,8.3-8.3h33.2a8.3,8.3,0,0,1,8.3,8.3v21" transform="translate(-236.784 -201.606)" fill="none" stroke="#000" stroke-linecap="round" stroke-linejoin="round" stroke-miterlimit="10" stroke-width="2"/>
      <path id="Trazado_1028489" data-name="Trazado 1028489" d="M387.316,324.435H360.9a2.26,2.26,0,0,1-2.26-2.26V311.61a2.26,2.26,0,0,1,2.26-2.26h26.413a2.26,2.26,0,0,1,2.26,2.26v10.565A2.26,2.26,0,0,1,387.316,324.435Z" transform="translate(-261.448 -226.338)" fill="none" stroke="#000" stroke-linecap="round" stroke-linejoin="round" stroke-miterlimit="10" stroke-width="2"/>
      <line id="Línea_747" data-name="Línea 747" x2="2.786" transform="translate(97.195 107.592)" fill="none" stroke="#000" stroke-linecap="round" stroke-linejoin="round" stroke-miterlimit="10" stroke-width="2"/>
      <line id="Línea_748" data-name="Línea 748" x2="2.786" transform="translate(107.855 107.592)" fill="none" stroke="#000" stroke-linecap="round" stroke-linejoin="round" stroke-miterlimit="10" stroke-width="2"/>
      <line id="Línea_749" data-name="Línea 749" x2="2.786" transform="translate(97.195 117.143)" fill="none" stroke="#000" stroke-linecap="round" stroke-linejoin="round" stroke-miterlimit="10" stroke-width="2"/>
      <line id="Línea_750" data-name="Línea 750" x2="2.786" transform="translate(107.855 117.143)" fill="none" stroke="#000" stroke-linecap="round" stroke-linejoin="round" stroke-miterlimit="10" stroke-width="2"/>
      <line id="Línea_751" data-name="Línea 751" x2="2.786" transform="translate(97.195 126.694)" fill="none" stroke="#000" stroke-linecap="round" stroke-linejoin="round" stroke-miterlimit="10" stroke-width="2"/>
      <line id="Línea_752" data-name="Línea 752" x2="2.786" transform="translate(107.855 126.694)" fill="none" stroke="#000" stroke-linecap="round" stroke-linejoin="round" stroke-miterlimit="10" stroke-width="2"/>
    </g>
  </g>
</svg>
