<svg xmlns="http://www.w3.org/2000/svg" xmlns:xlink="http://www.w3.org/1999/xlink" width="108" height="108" viewBox="0 0 108 108">
  <defs>
    <filter id="Trazado_904820" x="0" y="0" width="108" height="108" filterUnits="userSpaceOnUse">
      <feOffset dy="3" input="SourceAlpha"/>
      <feGaussianBlur stdDeviation="3" result="blur"/>
      <feFlood flood-opacity="0.161"/>
      <feComposite operator="in" in2="blur"/>
      <feComposite in="SourceGraphic"/>
    </filter>
  </defs>
  <g id="Grupo_1173422" data-name="Grupo 1173422" transform="translate(-200 -529)">
    <g id="Grupo_1173297" data-name="Grupo 1173297" transform="translate(209 535)">
      <g id="Grupo_1171910" data-name="Grupo 1171910" transform="translate(0)">
        <g id="Grupo_1167341" data-name="Grupo 1167341">
          <g id="Grupo_1166792" data-name="Grupo 1166792">
            <g transform="matrix(1, 0, 0, 1, -9, -6)" filter="url(#Trazado_904820)">
              <g id="Trazado_904820-2" data-name="Trazado 904820" transform="translate(9 6)" fill="#e9f9fd">
                <path d="M 44.99996948242188 88.50003051757812 C 39.12684631347656 88.50003051757812 33.43020629882812 87.35010528564453 28.06828117370605 85.08219909667969 C 22.88850784301758 82.89134216308594 18.23629379272461 79.75461578369141 14.2408447265625 75.75916290283203 C 10.24540710449219 71.76372528076172 7.108694553375244 67.11150360107422 4.917831897735596 61.93172836303711 C 2.649931907653809 56.56978988647461 1.500007033348083 50.87313842773438 1.500007033348083 45.00001525878906 C 1.500007033348083 39.12689208984375 2.649931907653809 33.43024063110352 4.917831897735596 28.06830215454102 C 7.108694553375244 22.88852691650391 10.24540710449219 18.23630332946777 14.2408447265625 14.24086570739746 C 18.23629379272461 10.24541568756104 22.88850784301758 7.10869026184082 28.06828117370605 4.917827606201172 C 33.43020629882812 2.649927854537964 39.12684631347656 1.50000274181366 44.99996948242188 1.50000274181366 C 50.87309265136719 1.50000274181366 56.56973266601562 2.649927854537964 61.93165588378906 4.917827606201172 C 67.11143493652344 7.10869026184082 71.76364135742188 10.24541568756104 75.75909423828125 14.24086570739746 C 79.75454711914062 18.23630332946777 82.89125823974609 22.88852691650391 85.08212280273438 28.06830215454102 C 87.35002136230469 33.43024063110352 88.49994659423828 39.12689208984375 88.49994659423828 45.00001525878906 C 88.49994659423828 50.87313842773438 87.35002136230469 56.56978988647461 85.08212280273438 61.93172836303711 C 82.89125823974609 67.11150360107422 79.75454711914062 71.76372528076172 75.75909423828125 75.75916290283203 C 71.76364135742188 79.75461578369141 67.11143493652344 82.89134216308594 61.93165588378906 85.08219909667969 C 56.56973266601562 87.35010528564453 50.87309265136719 88.50003051757812 44.99996948242188 88.50003051757812 Z" stroke="none"/>
                <path d="M 44.99996948242188 3 C 39.32868194580078 3 33.82863998413086 4.110061645507812 28.65261077880859 6.299346923828125 C 23.65164184570312 8.414573669433594 19.15968322753906 11.44334411621094 15.30149841308594 15.301513671875 C 11.44332885742188 19.15968322753906 8.414566040039062 23.65165710449219 6.299324035644531 28.65262985229492 C 4.110054016113281 33.82867050170898 3 39.32872772216797 3 45.00001525878906 C 3 50.67130279541016 4.110054016113281 56.17136001586914 6.299324035644531 61.34738922119141 C 8.414566040039062 66.34837341308594 11.44332885742188 70.84033203125 15.301513671875 74.69851684570312 C 19.15968322753906 78.55668640136719 23.65164184570312 81.58545684814453 28.65261077880859 83.70068359375 C 33.82863998413086 85.88996887207031 39.32868194580078 87.00003051757812 44.99996948242188 87.00003051757812 C 50.67125701904297 87.00003051757812 56.17129898071289 85.88996887207031 61.34732818603516 83.70068359375 C 66.34829711914062 81.58545684814453 70.84025573730469 78.55668640136719 74.69842529296875 74.69851684570312 C 78.55661010742188 70.84033203125 81.58537292480469 66.34837341308594 83.70061492919922 61.34738922119141 C 85.88988494873047 56.17136001586914 86.99993896484375 50.67130279541016 86.99993896484375 45.00001525878906 C 86.99993896484375 39.32872772216797 85.88988494873047 33.82867050170898 83.70061492919922 28.65262985229492 C 81.58537292480469 23.65165710449219 78.55661010742188 19.15968322753906 74.69844055175781 15.301513671875 C 70.84025573730469 11.44334411621094 66.34829711914062 8.414573669433594 61.34732818603516 6.299346923828125 C 56.17129898071289 4.110061645507812 50.67125701904297 3 44.99996948242188 3 M 44.99996948242188 0 C 69.85276794433594 0 89.99993896484375 20.14718627929688 89.99993896484375 45.00001525878906 C 89.99993896484375 69.85282897949219 69.85276794433594 90.00003051757812 44.99996948242188 90.00003051757812 C 20.14717102050781 90.00003051757812 0 69.85282897949219 0 45.00001525878906 C 0 20.14718627929688 20.14717102050781 0 44.99996948242188 0 Z" stroke="none" fill="#36ceef"/>
              </g>
            </g>
          </g>
        </g>
      </g>
    </g>
    <g id="bottom_2329812" transform="translate(226.706 551.706)">
      <g id="Grupo_1173420" data-name="Grupo 1173420" transform="translate(1.88 1.88)">
        <g id="Grupo_1173412" data-name="Grupo 1173412" transform="translate(0 5.283)">
          <path id="Trazado_1028614" data-name="Trazado 1028614" d="M38.979,38.816H42.5V26.49H40.74V21.207a9.875,9.875,0,0,1-1.127-.687A10.028,10.028,0,0,1,35.457,12.4,9.61,9.61,0,0,1,36.514,8H12.565V18.565H2V55.545H45.142V49.382Z" transform="translate(-2 -8)" fill="#f0d0b4"/>
        </g>
        <g id="Grupo_1173413" data-name="Grupo 1173413" transform="translate(14.087 8.805)">
          <path id="Trazado_1028615" data-name="Trazado 1028615" d="M18,12H33.848v7.044H18Z" transform="translate(-18 -12)" fill="#e6e9ed"/>
        </g>
        <g id="Grupo_1173414" data-name="Grupo 1173414" transform="translate(33.457 0)">
          <path id="Trazado_1028616" data-name="Trazado 1028616" d="M49.685,20.49h-4.4a9.875,9.875,0,0,1-1.127-.687A10.028,10.028,0,0,1,40,11.685a9.685,9.685,0,1,1,19.37,0,9.964,9.964,0,0,1-5.283,8.8Z" transform="translate(-40 -2)" fill="#ffeaa7"/>
        </g>
        <g id="Grupo_1173415" data-name="Grupo 1173415" transform="translate(36.979 23.772)">
          <path id="Trazado_1028617" data-name="Trazado 1028617" d="M56.326,41.326,50.163,51.892,44,41.326h3.522V29H52.8V41.326Z" transform="translate(-44 -29)" fill="#b4dd7f"/>
        </g>
        <g id="Grupo_1173416" data-name="Grupo 1173416" transform="translate(38.74 18.49)">
          <path id="Trazado_1028618" data-name="Trazado 1028618" d="M54.8,23v5.283H46V23h8.8Z" transform="translate(-46 -23)" fill="#ccd1d9"/>
        </g>
        <g id="Grupo_1173417" data-name="Grupo 1173417" transform="translate(40.665 7.073)">
          <circle id="Elipse_11837" data-name="Elipse 11837" cx="2.5" cy="2.5" r="2.5" transform="translate(-0.251 0.341)" fill="#fcd770"/>
        </g>
        <g id="Grupo_1173418" data-name="Grupo 1173418" transform="translate(4.02 31.503)">
          <circle id="Elipse_11838" data-name="Elipse 11838" cx="8.5" cy="8.5" r="8.5" transform="translate(0.394 -0.09)" fill="#fcd770"/>
        </g>
        <g id="Grupo_1173419" data-name="Grupo 1173419" transform="translate(0 5.283)">
          <path id="Trazado_1028619" data-name="Trazado 1028619" d="M12.565,8V18.565H2Z" transform="translate(-2 -8)" fill="#ff826e"/>
        </g>
      </g>
      <g id="Grupo_1173421" data-name="Grupo 1173421" transform="translate(1 1)">
        <path id="Trazado_1028620" data-name="Trazado 1028620" d="M16.4,44.522a.881.881,0,0,1,.88.88h1.761A2.645,2.645,0,0,0,16.4,42.761V41H14.641v1.761H12V45.4a2.645,2.645,0,0,0,2.641,2.641H16.4a.881.881,0,0,1,.88.88v.88H14.641a.881.881,0,0,1-.88-.88H12a2.645,2.645,0,0,0,2.641,2.641v1.761H16.4V51.565h2.641V48.924A2.645,2.645,0,0,0,16.4,46.283H14.641a.881.881,0,0,1-.88-.88v-.88Z" transform="translate(-2.315 -5.782)"/>
        <path id="Trazado_1028621" data-name="Trazado 1028621" d="M14.685,37a9.685,9.685,0,1,0,9.685,9.685A9.7,9.7,0,0,0,14.685,37Zm0,17.609a7.924,7.924,0,1,1,7.924-7.924A7.933,7.933,0,0,1,14.685,54.609Z" transform="translate(-1.478 -5.304)"/>
        <path id="Trazado_1028622" data-name="Trazado 1028622" d="M48.545,37.1V26.533h1.761V20.892a10.85,10.85,0,0,0,5.283-9.327,10.557,10.557,0,0,0-19.7-5.283h-23.8L1,17.364V55.588H45.9V48.782L52.719,37.1Zm1.108,1.761L45.023,46.8l-4.63-7.938h2.869V26.533h3.522V38.86ZM41.5,24.772V21.251h7.044v3.522Zm3.522-11.446a1.761,1.761,0,1,1,1.761-1.761A1.763,1.763,0,0,1,45.023,13.326Zm0-10.565a8.815,8.815,0,0,1,8.8,8.8,9.042,9.042,0,0,1-4.645,7.924H45.9V14.962a3.522,3.522,0,1,0-1.761,0V19.49H40.864a9.042,9.042,0,0,1-4.645-7.924A8.815,8.815,0,0,1,45.023,2.761ZM11.565,9.289v7.56H4.006Zm-8.8,44.539V18.609H13.326V8.044H35.074a10.5,10.5,0,0,0-.616,3.522,10.85,10.85,0,0,0,5.283,9.327v5.641H41.5V37.1H37.327l6.816,11.684v5.045Z" transform="translate(-1 -1)"/>
        <path id="Trazado_1028623" data-name="Trazado 1028623" d="M37,57h1.761v1.761H37Z" transform="translate(-5.304 -7.694)"/>
        <path id="Trazado_1028624" data-name="Trazado 1028624" d="M33,57h1.761v1.761H33Z" transform="translate(-4.825 -7.694)"/>
        <path id="Trazado_1028625" data-name="Trazado 1028625" d="M29,57h1.761v1.761H29Z" transform="translate(-4.347 -7.694)"/>
        <path id="Trazado_1028626" data-name="Trazado 1028626" d="M29,53h8.8v1.761H29Z" transform="translate(-4.347 -7.216)"/>
        <path id="Trazado_1028627" data-name="Trazado 1028627" d="M29,49h8.8v1.761H29Z" transform="translate(-4.347 -6.738)"/>
        <path id="Trazado_1028628" data-name="Trazado 1028628" d="M29,45h8.8v1.761H29Z" transform="translate(-4.347 -6.26)"/>
        <path id="Trazado_1028629" data-name="Trazado 1028629" d="M34.609,11H17v8.8H34.609Zm-1.761,7.044H18.761V12.761H32.848Z" transform="translate(-2.913 -2.195)"/>
        <path id="Trazado_1028630" data-name="Trazado 1028630" d="M5,23H6.761v1.761H5Z" transform="translate(-1.478 -3.63)"/>
        <path id="Trazado_1028631" data-name="Trazado 1028631" d="M9,23H38.936v1.761H9Z" transform="translate(-1.956 -3.63)"/>
        <path id="Trazado_1028632" data-name="Trazado 1028632" d="M5,27H38.457v1.761H5Z" transform="translate(-1.478 -4.108)"/>
        <path id="Trazado_1028633" data-name="Trazado 1028633" d="M5,31H27.892v1.761H5Z" transform="translate(-1.478 -4.586)"/>
        <path id="Trazado_1028634" data-name="Trazado 1028634" d="M37,31h1.761v1.761H37Z" transform="translate(-5.304 -4.586)"/>
        <path id="Trazado_1028635" data-name="Trazado 1028635" d="M33,31h1.761v1.761H33Z" transform="translate(-4.825 -4.586)"/>
        <path id="Trazado_1028636" data-name="Trazado 1028636" d="M41,31h1.761v1.761H41Z" transform="translate(-5.782 -4.586)"/>
      </g>
    </g>
  </g>
</svg>
