<svg xmlns="http://www.w3.org/2000/svg" width="28.653" height="31.165" viewBox="0 0 28.653 31.165">
  <g id="dollar_2331572_1_" data-name="dollar_2331572 (1)" transform="translate(-20.575)">
    <path id="Trazado_1028450" data-name="Trazado 1028450" d="M31.5,13.956H56.725a1.115,1.115,0,0,0,1.114-1.114V1.114A1.115,1.115,0,0,0,56.725,0H31.5a1.115,1.115,0,0,0-1.114,1.114V12.842A1.115,1.115,0,0,0,31.5,13.956ZM31.3,1.114a.2.2,0,0,1,.2-.2H56.725a.2.2,0,0,1,.2.2V12.842a.2.2,0,0,1-.2.2H31.5a.2.2,0,0,1-.2-.2Z" transform="translate(-9.213 0)"/>
    <path id="Trazado_1028451" data-name="Trazado 1028451" d="M226.185,61.583h-1.469a.286.286,0,0,1-.286-.286V60.65a.286.286,0,0,1,.286-.286H226.2v.215a.458.458,0,0,0,.916,0v-.261a.87.87,0,0,0-.869-.869H225.9v-.326a.458.458,0,0,0-.916,0v.326h-.27a1.2,1.2,0,0,0-1.2,1.2V61.3a1.2,1.2,0,0,0,1.2,1.2h1.469a.286.286,0,0,1,.286.286v.594a.286.286,0,0,1-.286.286h-1.616v-.107a.458.458,0,1,0-.916,0v.153a.87.87,0,0,0,.869.869h.516v.293a.458.458,0,0,0,.916,0v-.293h.231a1.2,1.2,0,0,0,1.2-1.2v-.594A1.2,1.2,0,0,0,226.185,61.583Z" transform="translate(-190.55 -55.084)"/>
    <path id="Trazado_1028452" data-name="Trazado 1028452" d="M60.844,38.387a1.45,1.45,0,0,1,1.448,1.448.458.458,0,0,0,.458.458H81.811a.458.458,0,0,0,.458-.458,1.45,1.45,0,0,1,1.448-1.448.458.458,0,0,0,.458-.458V32.364a.458.458,0,0,0-.458-.458,1.45,1.45,0,0,1-1.448-1.448A.458.458,0,0,0,81.811,30H66.526a.458.458,0,1,0,0,.916h2.829a5.14,5.14,0,0,0,0,8.462H63.163A2.371,2.371,0,0,0,61.3,37.516V32.777a2.371,2.371,0,0,0,1.861-1.861h1.411a.458.458,0,0,0,0-.916H62.75a.458.458,0,0,0-.458.458,1.45,1.45,0,0,1-1.448,1.448.458.458,0,0,0-.458.458v5.565A.458.458,0,0,0,60.844,38.387Zm7.206-3.241a4.231,4.231,0,0,1,8.369-.881.458.458,0,1,0,.9-.19,5.142,5.142,0,0,0-2.115-3.16h6.2a2.371,2.371,0,0,0,1.861,1.861v4.739A2.371,2.371,0,0,0,81.4,39.377H75.2a5.141,5.141,0,0,0,2.115-3.16.458.458,0,1,0-.9-.19,4.231,4.231,0,0,1-8.369-.881Z" transform="translate(-37.381 -28.169)"/>
    <path id="Trazado_1028453" data-name="Trazado 1028453" d="M230.138,413.964a.458.458,0,1,0,0-.916h-.428a.458.458,0,1,0,0,.916Z" transform="translate(-195.938 -387.833)"/>
    <path id="Trazado_1028454" data-name="Trazado 1028454" d="M48.815,323.436a1.815,1.815,0,0,0-2.328-.421L42.04,325.6a3.488,3.488,0,0,0-3.161-2.032H35.033l-.179-.179a5.745,5.745,0,0,0-4.089-1.694h-.122a5.742,5.742,0,0,0-3.95,1.56H25.9a1.427,1.427,0,0,0-1.418-1.285H21.491v-.463a.458.458,0,1,0-.916,0v10.25a.458.458,0,0,0,.916,0v-.469h2.991a1.427,1.427,0,0,0,1.418-1.285h3.584l1.608.673a.458.458,0,1,0,.353-.845l-1.693-.708a.457.457,0,0,0-.177-.035H25.907v-4.917h.971a.458.458,0,0,0,.324-.134,4.835,4.835,0,0,1,3.442-1.426h.122a4.835,4.835,0,0,1,3.441,1.426l.313.313a.458.458,0,0,0,.324.134h4.036a2.568,2.568,0,0,1,2.4,1.678.375.375,0,0,1-.352.5h-5.1a.458.458,0,0,0,0,.916h5.1a1.292,1.292,0,0,0,1.258-1.008l4.759-2.77a.907.907,0,0,1,1,1.508L40.568,330.9a3.986,3.986,0,0,1-2.391.8H36.709a3.943,3.943,0,0,1-1.529-.307l-1.92-.8a.458.458,0,0,0-.353.845l1.92.8a4.853,4.853,0,0,0,1.882.378h1.468a4.907,4.907,0,0,0,2.943-.988l7.384-5.586a1.823,1.823,0,0,0,.311-2.609Zm-23.824,6.43a.51.51,0,0,1-.509.509H21.491v-7.487h2.991a.51.51,0,0,1,.509.509Z" transform="translate(0 -301.453)"/>
    <path id="Trazado_1028455" data-name="Trazado 1028455" d="M247.229,266.174V268.7a.458.458,0,1,0,.916,0v-2.523a.458.458,0,1,0-.916,0Z" transform="translate(-212.818 -249.495)"/>
    <path id="Trazado_1028456" data-name="Trazado 1028456" d="M200.76,254.81v2.055a.458.458,0,1,0,.916,0V254.81a.458.458,0,1,0-.916,0Z" transform="translate(-169.185 -238.825)"/>
    <path id="Trazado_1028457" data-name="Trazado 1028457" d="M293.7,254.81v2.055a.458.458,0,0,0,.916,0V254.81a.458.458,0,0,0-.916,0Z" transform="translate(-256.451 -238.825)"/>
  </g>
</svg>
