<svg xmlns="http://www.w3.org/2000/svg" xmlns:xlink="http://www.w3.org/1999/xlink" width="106" height="106" viewBox="0 0 106 106">
  <defs>
    <filter id="Trazado_982547" x="0" y="0" width="106" height="106" filterUnits="userSpaceOnUse">
      <feOffset dy="3" input="SourceAlpha"/>
      <feGaussianBlur stdDeviation="3" result="blur"/>
      <feFlood flood-opacity="0.161"/>
      <feComposite operator="in" in2="blur"/>
      <feComposite in="SourceGraphic"/>
    </filter>
  </defs>
  <g id="Grupo_1173919" data-name="Grupo 1173919" transform="translate(-171 -1440)">
    <g id="Grupo_1173175" data-name="Grupo 1173175" transform="translate(0 -2538)">
      <g id="Grupo_1171932" data-name="Grupo 1171932" transform="translate(0 2921)">
        <g id="Grupo_1167337" data-name="Grupo 1167337" transform="translate(180 1063)">
          <g id="Grupo_1166720" data-name="Grupo 1166720" transform="translate(0)">
            <g id="Grupo_1164305" data-name="Grupo 1164305">
              <g id="Grupo_1163948" data-name="Grupo 1163948">
                <g id="Grupo_1158168" data-name="Grupo 1158168">
                  <g id="Grupo_1152576" data-name="Grupo 1152576">
                    <g id="Grupo_1148633" data-name="Grupo 1148633">
                      <g id="Grupo_1148525" data-name="Grupo 1148525">
                        <g transform="matrix(1, 0, 0, 1, -9, -6)" filter="url(#Trazado_982547)">
                          <g id="Trazado_982547-2" data-name="Trazado 982547" transform="translate(9 6)" fill="#e9f9fd">
                            <path d="M 44 86.5 C 38.26187515258789 86.5 32.69618606567383 85.37651062011719 27.45755004882812 83.16075897216797 C 22.3968505859375 81.020263671875 17.85157585144043 77.95565032958984 13.94796276092529 74.05204010009766 C 10.04434967041016 70.1484375 6.979737281799316 65.6031494140625 4.839250087738037 60.54246139526367 C 2.62348747253418 55.30381393432617 1.5 49.73812484741211 1.5 44 C 1.5 38.26187515258789 2.62348747253418 32.69618606567383 4.839250087738037 27.45755004882812 C 6.979737281799316 22.3968505859375 10.04434967041016 17.85157585144043 13.94796276092529 13.94796276092529 C 17.85157585144043 10.04434967041016 22.3968505859375 6.979737281799316 27.45755004882812 4.839250087738037 C 32.69618606567383 2.62348747253418 38.26187515258789 1.5 44 1.5 C 49.73812484741211 1.5 55.30381393432617 2.62348747253418 60.54246139526367 4.839250087738037 C 65.6031494140625 6.979737281799316 70.1484375 10.04434967041016 74.05204010009766 13.94796276092529 C 77.95565032958984 17.85157585144043 81.020263671875 22.3968505859375 83.16075897216797 27.45755004882812 C 85.37651062011719 32.69618606567383 86.5 38.26187515258789 86.5 44 C 86.5 49.73812484741211 85.37651062011719 55.30381393432617 83.16075897216797 60.54246139526367 C 81.020263671875 65.6031494140625 77.95565032958984 70.1484375 74.05204010009766 74.05204010009766 C 70.1484375 77.95565032958984 65.6031494140625 81.020263671875 60.54246139526367 83.16075897216797 C 55.30381393432617 85.37651062011719 49.73812484741211 86.5 44 86.5 Z" stroke="none"/>
                            <path d="M 44 3 C 38.46371459960938 3 33.09462738037109 4.083610534667969 28.0418701171875 6.220756530761719 C 23.15997314453125 8.285614013671875 18.77495574951172 11.24228668212891 15.00862884521484 15.00862884521484 C 11.24228668212891 18.77495574951172 8.285614013671875 23.15997314453125 6.220756530761719 28.0418701171875 C 4.083610534667969 33.09462738037109 3 38.46371459960938 3 44 C 3 49.53628540039062 4.083610534667969 54.9053840637207 6.220756530761719 59.9581298828125 C 8.285614013671875 64.84002685546875 11.24228668212891 69.22504425048828 15.00862884521484 72.99138641357422 C 18.77495574951172 76.75771331787109 23.15997314453125 79.71438598632812 28.0418701171875 81.77925872802734 C 33.09462738037109 83.9163818359375 38.46371459960938 85 44 85 C 49.53628540039062 85 54.9053840637207 83.9163818359375 59.95814514160156 81.77925872802734 C 64.84002685546875 79.71438598632812 69.22504425048828 76.75771331787109 72.99138641357422 72.99138641357422 C 76.75771331787109 69.22504425048828 79.71438598632812 64.84002685546875 81.77925872802734 59.95814514160156 C 83.9163818359375 54.9053840637207 85 49.53628540039062 85 44 C 85 38.46371459960938 83.9163818359375 33.09462738037109 81.77925872802734 28.0418701171875 C 79.71438598632812 23.15997314453125 76.75771331787109 18.77495574951172 72.99138641357422 15.00862884521484 C 69.22504425048828 11.24228668212891 64.84002685546875 8.285614013671875 59.9581298828125 6.220756530761719 C 54.9053840637207 4.083610534667969 49.53628540039062 3 44 3 M 44 0 C 68.30054473876953 0 88 19.69947052001953 88 44 C 88 68.30054473876953 68.30054473876953 88 44 88 C 19.69947052001953 88 0 68.30054473876953 0 44 C 0 19.69947052001953 19.69947052001953 0 44 0 Z" stroke="none" fill="#1d7083"/>
                          </g>
                        </g>
                      </g>
                    </g>
                  </g>
                </g>
              </g>
            </g>
          </g>
        </g>
      </g>
    </g>
    <g id="rising_2719791" transform="translate(200.797 1464.82)">
      <g id="Grupo_1173362" data-name="Grupo 1173362" transform="translate(1.78 1.78)">
        <g id="Grupo_1173353" data-name="Grupo 1173353" transform="translate(42.12 26.52)">
          <path id="Trazado_1028496" data-name="Trazado 1028496" d="M56,36h4.68V56.28H56Z" transform="translate(-56 -36)" fill="#ff826e"/>
        </g>
        <g id="Grupo_1173354" data-name="Grupo 1173354" transform="translate(26.52 32.76)">
          <path id="Trazado_1028497" data-name="Trazado 1028497" d="M36,44h4.68V58.04H36Z" transform="translate(-36 -44)" fill="#ff826e"/>
        </g>
        <g id="Grupo_1173355" data-name="Grupo 1173355" transform="translate(34.32 29.64)">
          <path id="Trazado_1028498" data-name="Trazado 1028498" d="M46,40h4.68V57.16H46Z" transform="translate(-46 -40)" fill="#ff826e"/>
        </g>
        <g id="Grupo_1173356" data-name="Grupo 1173356" transform="translate(5.46)">
          <path id="Trazado_1028499" data-name="Trazado 1028499" d="M15.388,3.56A2.391,2.391,0,0,1,17.635,2h3.011A2.39,2.39,0,0,1,23.04,4.395v.164a2.441,2.441,0,0,1-.25,1.069L19.92,11.36h-7.8L9.406,7.281A2.352,2.352,0,0,1,9,5.955,2.39,2.39,0,0,1,11.395,3.56Z" transform="translate(-9 -2)" fill="#a0d468"/>
        </g>
        <g id="Grupo_1173357" data-name="Grupo 1173357" transform="translate(5.46 9.36)">
          <path id="Trazado_1028500" data-name="Trazado 1028500" d="M22.58,16.66a1.525,1.525,0,0,1-1.1.46H10.56A1.565,1.565,0,0,1,9,15.56,1.571,1.571,0,0,1,10.56,14H21.48a1.565,1.565,0,0,1,1.56,1.56A1.525,1.525,0,0,1,22.58,16.66Z" transform="translate(-9 -14)" fill="#ccd1d9"/>
        </g>
        <g id="Grupo_1173358" data-name="Grupo 1173358" transform="translate(0 12.48)">
          <path id="Trazado_1028501" data-name="Trazado 1028501" d="M16.04,42.96H8.435A12.471,12.471,0,0,1,2,32.04v-.164a12.47,12.47,0,0,1,2.894-7.987L9.8,18h9.36l4.906,5.889a12.47,12.47,0,0,1,2.894,7.987v.164a13.043,13.043,0,0,1-.109,1.669,12.5,12.5,0,0,1-6.326,9.251H16.04Z" transform="translate(-2 -18)" fill="#b4dd7f"/>
        </g>
        <g id="Grupo_1173359" data-name="Grupo 1173359" transform="translate(1.56 42.12)">
          <path id="Trazado_1028502" data-name="Trazado 1028502" d="M24.28,56a1.565,1.565,0,0,1,1.56,1.56v1.56a1.565,1.565,0,0,1-1.56,1.56H5.56A1.565,1.565,0,0,1,4,59.12V57.56A1.565,1.565,0,0,1,5.56,56H24.28Z" transform="translate(-4 -56)" fill="#ffc729"/>
        </g>
        <g id="Grupo_1173360" data-name="Grupo 1173360" transform="translate(1.56 37.44)">
          <path id="Trazado_1028503" data-name="Trazado 1028503" d="M22.72,50h1.56a1.565,1.565,0,0,1,1.56,1.56v1.56a1.565,1.565,0,0,1-1.56,1.56H5.56A1.565,1.565,0,0,1,4,53.12V51.56A1.565,1.565,0,0,1,5.56,50H22.72Z" transform="translate(-4 -50)" fill="#fcd770"/>
        </g>
        <g id="Grupo_1173361" data-name="Grupo 1173361" transform="translate(38.22 14.82)">
          <path id="Trazado_1028504" data-name="Trazado 1028504" d="M58.8,21l-1.56,7.8-3.12-3.12L51,22.56Z" transform="translate(-51 -21)" fill="#ff826e"/>
        </g>
      </g>
      <g id="Grupo_1173363" data-name="Grupo 1173363" transform="translate(1 1)">
        <path id="Trazado_1028505" data-name="Trazado 1028505" d="M17.887,33.023l-1.6-.4a2.286,2.286,0,0,1,.555-4.5h.108a2.288,2.288,0,0,1,2.285,2.286v.054l1.56-.054a3.85,3.85,0,0,0-3.12-3.773V25H16.12v1.633a3.844,3.844,0,0,0-.207,7.5l1.6.4a2.286,2.286,0,0,1-.555,4.5h-.108a2.288,2.288,0,0,1-2.285-2.286V35.92H13v.834a3.85,3.85,0,0,0,3.12,3.773V42.16h1.56V40.527a3.843,3.843,0,0,0,.207-7.5Z" transform="translate(-3.64 -6.28)"/>
        <path id="Trazado_1028506" data-name="Trazado 1028506" d="M43.12,27.52V47.8H41.56V30.64H35.32V47.8H33.76V33.76H27.52V47.8h-1.7a2.314,2.314,0,0,0,.144-.78V45.46a2.325,2.325,0,0,0-.608-1.56,2.321,2.321,0,0,0,.608-1.56V40.78a2.343,2.343,0,0,0-2.34-2.34H22.8a13.276,13.276,0,0,0,4.554-8.092L32.2,25.5l3.9,3.9,7.02-7.02,3.6,3.6,2.076-10.376L38.418,17.681l3.6,3.6L36.1,27.2l-3.9-3.9-4.687,4.687a13.28,13.28,0,0,0-3.067-8.334L20.488,14.9a2.334,2.334,0,0,0-.768-4.54h-.3l2.3-4.605a3.193,3.193,0,0,0,.335-1.42v-.16A3.178,3.178,0,0,0,18.886,1H15.875a3.165,3.165,0,0,0-2.718,1.56H9.635A3.174,3.174,0,0,0,6.994,7.5L8.9,10.36H8.8a2.334,2.334,0,0,0-.768,4.54L4.073,19.65A13.284,13.284,0,0,0,1,28.139V28.3A13.272,13.272,0,0,0,5.719,38.44H4.9a2.343,2.343,0,0,0-2.34,2.34v1.56a2.325,2.325,0,0,0,.608,1.56,2.325,2.325,0,0,0-.608,1.56v1.56A2.343,2.343,0,0,0,4.9,49.36H49.36V27.52Zm3.686-9.926-1.044,5.224L41.583,18.64ZM36.88,32.2H40V47.8H36.88Zm-7.8,3.12H32.2V47.8H29.08ZM8.291,6.631A1.615,1.615,0,0,1,9.635,4.12h3.071c0,.019-.005.036-.005.055V7.24h1.56V4.175A1.617,1.617,0,0,1,15.875,2.56h3.01A1.617,1.617,0,0,1,20.5,4.175v.16a1.623,1.623,0,0,1-.171.722l-2.651,5.3h-6.9ZM8.8,11.92H19.72a.78.78,0,1,1,0,1.56H8.8a.78.78,0,0,1,0-1.56ZM2.56,28.3v-.161a11.724,11.724,0,0,1,2.712-7.49L9.945,15.04h8.63l4.674,5.608a11.727,11.727,0,0,1,2.711,7.49V28.3a11.712,11.712,0,0,1-5.869,10.14H8.428A11.713,11.713,0,0,1,2.56,28.3ZM4.12,40.78A.781.781,0,0,1,4.9,40h.78v1.56H7.24V40H8.8v1.56h1.56V40h1.56v1.56h1.56V40h1.56v1.56H16.6V40h1.56v1.56h1.56V40h1.56v1.56h1.56V40h.78a.781.781,0,0,1,.78.78v1.56a.781.781,0,0,1-.78.78H4.9a.781.781,0,0,1-.78-.78ZM22.84,47.8H4.9a.781.781,0,0,1-.78-.78V45.46a.781.781,0,0,1,.78-.78h.78v1.56H7.24V44.68H8.8v1.56h1.56V44.68h1.56v1.56h1.56V44.68h1.56v1.56H16.6V44.68h1.56v1.56h1.56V44.68h1.56v1.56h1.56V44.68h.78a.781.781,0,0,1,.78.78v1.56a.781.781,0,0,1-.78.78Zm24.96,0H44.68V29.08H47.8Z" transform="translate(-1 -1)"/>
        <path id="Trazado_1028507" data-name="Trazado 1028507" d="M47,5h1.56V6.56H47Z" transform="translate(-11.12 -1.88)"/>
        <path id="Trazado_1028508" data-name="Trazado 1028508" d="M47,9h1.56v1.56H47Z" transform="translate(-11.12 -2.76)"/>
        <path id="Trazado_1028509" data-name="Trazado 1028509" d="M49,7h1.56V8.56H49Z" transform="translate(-11.56 -2.32)"/>
        <path id="Trazado_1028510" data-name="Trazado 1028510" d="M45,7h1.56V8.56H45Z" transform="translate(-10.68 -2.32)"/>
        <path id="Trazado_1028511" data-name="Trazado 1028511" d="M43,14h1.56v1.56H43Z" transform="translate(-10.24 -3.86)"/>
        <path id="Trazado_1028512" data-name="Trazado 1028512" d="M43,18h1.56v1.56H43Z" transform="translate(-10.24 -4.74)"/>
        <path id="Trazado_1028513" data-name="Trazado 1028513" d="M45,16h1.56v1.56H45Z" transform="translate(-10.68 -4.3)"/>
        <path id="Trazado_1028514" data-name="Trazado 1028514" d="M41,16h1.56v1.56H41Z" transform="translate(-9.8 -4.3)"/>
        <path id="Trazado_1028515" data-name="Trazado 1028515" d="M57,10h1.56v1.56H57Z" transform="translate(-13.32 -2.98)"/>
        <path id="Trazado_1028516" data-name="Trazado 1028516" d="M57,14h1.56v1.56H57Z" transform="translate(-13.32 -3.86)"/>
        <path id="Trazado_1028517" data-name="Trazado 1028517" d="M59,12h1.56v1.56H59Z" transform="translate(-13.76 -3.42)"/>
        <path id="Trazado_1028518" data-name="Trazado 1028518" d="M55,12h1.56v1.56H55Z" transform="translate(-12.88 -3.42)"/>
        <path id="Trazado_1028519" data-name="Trazado 1028519" d="M36,20h1.56v1.56H36Z" transform="translate(-8.7 -5.18)"/>
        <path id="Trazado_1028520" data-name="Trazado 1028520" d="M36,24h1.56v1.56H36Z" transform="translate(-8.7 -6.06)"/>
        <path id="Trazado_1028521" data-name="Trazado 1028521" d="M38,22h1.56v1.56H38Z" transform="translate(-9.14 -5.62)"/>
        <path id="Trazado_1028522" data-name="Trazado 1028522" d="M34,22h1.56v1.56H34Z" transform="translate(-8.26 -5.62)"/>
        <path id="Trazado_1028523" data-name="Trazado 1028523" d="M33,5h1.56V6.56H33Z" transform="translate(-8.04 -1.88)"/>
        <path id="Trazado_1028524" data-name="Trazado 1028524" d="M33,9h1.56v1.56H33Z" transform="translate(-8.04 -2.76)"/>
        <path id="Trazado_1028525" data-name="Trazado 1028525" d="M35,7h1.56V8.56H35Z" transform="translate(-8.48 -2.32)"/>
        <path id="Trazado_1028526" data-name="Trazado 1028526" d="M31,7h1.56V8.56H31Z" transform="translate(-7.6 -2.32)"/>
      </g>
    </g>
  </g>
</svg>
