<svg xmlns="http://www.w3.org/2000/svg" xmlns:xlink="http://www.w3.org/1999/xlink" width="106" height="106" viewBox="0 0 106 106">
  <defs>
    <filter id="Trazado_982547" x="0" y="0" width="106" height="106" filterUnits="userSpaceOnUse">
      <feOffset dy="3" input="SourceAlpha"/>
      <feGaussianBlur stdDeviation="3" result="blur"/>
      <feFlood flood-opacity="0.161"/>
      <feComposite operator="in" in2="blur"/>
      <feComposite in="SourceGraphic"/>
    </filter>
    <clipPath id="clip-path">
      <path id="path7317" d="M0-682.665H62.638v62.638H0Z" transform="translate(0 682.665)"/>
    </clipPath>
  </defs>
  <g id="Grupo_1173947" data-name="Grupo 1173947" transform="translate(-171 -4908)">
    <g id="Grupo_1173903" data-name="Grupo 1173903" transform="translate(0 1197)">
      <g id="Grupo_1172017" data-name="Grupo 1172017" transform="translate(0 2654)">
        <g id="Grupo_1167337" data-name="Grupo 1167337" transform="translate(180 1063)">
          <g id="Grupo_1166720" data-name="Grupo 1166720" transform="translate(0)">
            <g id="Grupo_1164305" data-name="Grupo 1164305">
              <g id="Grupo_1163948" data-name="Grupo 1163948">
                <g id="Grupo_1158168" data-name="Grupo 1158168">
                  <g id="Grupo_1152576" data-name="Grupo 1152576">
                    <g id="Grupo_1148633" data-name="Grupo 1148633">
                      <g id="Grupo_1148525" data-name="Grupo 1148525">
                        <g transform="matrix(1, 0, 0, 1, -9, -6)" filter="url(#Trazado_982547)">
                          <g id="Trazado_982547-2" data-name="Trazado 982547" transform="translate(9 6)" fill="#fbfbf9">
                            <path d="M 44 86.5 C 38.26187515258789 86.5 32.69618606567383 85.37651062011719 27.45755004882812 83.16075897216797 C 22.3968505859375 81.020263671875 17.85157585144043 77.95565032958984 13.94796276092529 74.05204010009766 C 10.04434967041016 70.1484375 6.979737281799316 65.6031494140625 4.839250087738037 60.54246139526367 C 2.62348747253418 55.30381393432617 1.5 49.73812484741211 1.5 44 C 1.5 38.26187515258789 2.62348747253418 32.69618606567383 4.839250087738037 27.45755004882812 C 6.979737281799316 22.3968505859375 10.04434967041016 17.85157585144043 13.94796276092529 13.94796276092529 C 17.85157585144043 10.04434967041016 22.3968505859375 6.979737281799316 27.45755004882812 4.839250087738037 C 32.69618606567383 2.62348747253418 38.26187515258789 1.5 44 1.5 C 49.73812484741211 1.5 55.30381393432617 2.62348747253418 60.54246139526367 4.839250087738037 C 65.6031494140625 6.979737281799316 70.1484375 10.04434967041016 74.05204010009766 13.94796276092529 C 77.95565032958984 17.85157585144043 81.020263671875 22.3968505859375 83.16075897216797 27.45755004882812 C 85.37651062011719 32.69618606567383 86.5 38.26187515258789 86.5 44 C 86.5 49.73812484741211 85.37651062011719 55.30381393432617 83.16075897216797 60.54246139526367 C 81.020263671875 65.6031494140625 77.95565032958984 70.1484375 74.05204010009766 74.05204010009766 C 70.1484375 77.95565032958984 65.6031494140625 81.020263671875 60.54246139526367 83.16075897216797 C 55.30381393432617 85.37651062011719 49.73812484741211 86.5 44 86.5 Z" stroke="none"/>
                            <path d="M 44 3 C 38.46371459960938 3 33.09462738037109 4.083610534667969 28.0418701171875 6.220756530761719 C 23.15997314453125 8.285614013671875 18.77495574951172 11.24228668212891 15.00862884521484 15.00862884521484 C 11.24228668212891 18.77495574951172 8.285614013671875 23.15997314453125 6.220756530761719 28.0418701171875 C 4.083610534667969 33.09462738037109 3 38.46371459960938 3 44 C 3 49.53628540039062 4.083610534667969 54.9053840637207 6.220756530761719 59.9581298828125 C 8.285614013671875 64.84002685546875 11.24228668212891 69.22504425048828 15.00862884521484 72.99138641357422 C 18.77495574951172 76.75771331787109 23.15997314453125 79.71438598632812 28.0418701171875 81.77925872802734 C 33.09462738037109 83.9163818359375 38.46371459960938 85 44 85 C 49.53628540039062 85 54.9053840637207 83.9163818359375 59.95814514160156 81.77925872802734 C 64.84002685546875 79.71438598632812 69.22504425048828 76.75771331787109 72.99138641357422 72.99138641357422 C 76.75771331787109 69.22504425048828 79.71438598632812 64.84002685546875 81.77925872802734 59.95814514160156 C 83.9163818359375 54.9053840637207 85 49.53628540039062 85 44 C 85 38.46371459960938 83.9163818359375 33.09462738037109 81.77925872802734 28.0418701171875 C 79.71438598632812 23.15997314453125 76.75771331787109 18.77495574951172 72.99138641357422 15.00862884521484 C 69.22504425048828 11.24228668212891 64.84002685546875 8.285614013671875 59.9581298828125 6.220756530761719 C 54.9053840637207 4.083610534667969 49.53628540039062 3 44 3 M 44 0 C 68.30054473876953 0 88 19.69947052001953 88 44 C 88 68.30054473876953 68.30054473876953 88 44 88 C 19.69947052001953 88 0 68.30054473876953 0 44 C 0 19.69947052001953 19.69947052001953 0 44 0 Z" stroke="none" fill="#7b776f"/>
                          </g>
                        </g>
                      </g>
                    </g>
                  </g>
                </g>
              </g>
            </g>
          </g>
        </g>
      </g>
    </g>
    <g id="g7311" transform="translate(192.681 5610.346)">
      <g id="g7313" transform="translate(0 -682.665)">
        <g id="g7315" clip-path="url(#clip-path)">
          <g id="g7321" transform="translate(21.852 52.744)">
            <path id="path7323" d="M-47.545-88.854h-.315a4.488,4.488,0,0,1-4.488-4.488A4.488,4.488,0,0,1-47.86-97.83h.315a4.488,4.488,0,0,1,4.488,4.488,4.488,4.488,0,0,1-4.488,4.488" transform="translate(52.348 97.83)" fill="#e2dee2"/>
          </g>
          <g id="g7325" transform="translate(21.852 56.627)">
            <path id="path7327" d="M-38-5.988h0a4.5,4.5,0,0,1,.043-.6H-41.8a4.524,4.524,0,0,0-.042.6A4.488,4.488,0,0,0-37.352-1.5h.315a4.473,4.473,0,0,0,1.762-.36A4.489,4.489,0,0,1-38-5.988" transform="translate(41.84 6.593)" fill="#cbc4cb"/>
          </g>
          <g id="g7329" transform="translate(21.852 52.744)">
            <path id="path7331" d="M-47.545-88.854h-.315a4.488,4.488,0,0,1-4.488-4.488A4.488,4.488,0,0,1-47.86-97.83h.315a4.488,4.488,0,0,1,4.488,4.488A4.488,4.488,0,0,1-47.545-88.854Z" transform="translate(52.348 97.83)" fill="none" stroke="#000" stroke-linecap="round" stroke-linejoin="round" stroke-miterlimit="10" stroke-width="1.3"/>
          </g>
          <g id="g7333" transform="translate(10.12 8.564)">
            <path id="path7335" d="M-324.238-162.118A16.378,16.378,0,0,0-340.416-178.5a16.49,16.49,0,0,0-16.578,16.377,16.36,16.36,0,0,0,7.169,13.544,5.28,5.28,0,0,1,2.254,3.469l1.208,7.094h11.5l1.2-7.04a5.38,5.38,0,0,1,2.28-3.534,16.359,16.359,0,0,0,7.151-13.532" transform="translate(356.994 178.496)" fill="#fed402"/>
          </g>
          <g id="g7337" transform="translate(26.419 29.122)">
            <path id="path7339" d="M0,0V21.575" fill="none" stroke="#000" stroke-linecap="round" stroke-linejoin="round" stroke-miterlimit="10" stroke-width="1.3"/>
          </g>
          <g id="g7341" transform="translate(10.12 8.944)">
            <path id="path7343" d="M-93.267-326.769l.333,1.957h4.387l-.593-3.482a5.279,5.279,0,0,0-2.254-3.469,16.36,16.36,0,0,1-7.169-13.544,16.48,16.48,0,0,1,8.781-14.473,16.519,16.519,0,0,0-12.908,16,16.359,16.359,0,0,0,7.169,13.544,5.28,5.28,0,0,1,2.254,3.469" transform="translate(102.689 359.78)" fill="#fac600"/>
          </g>
          <g id="g7345" transform="translate(10.12 8.564)">
            <path id="path7347" d="M-324.238-162.118A16.378,16.378,0,0,0-340.416-178.5a16.49,16.49,0,0,0-16.578,16.377,16.36,16.36,0,0,0,7.169,13.544,5.28,5.28,0,0,1,2.254,3.469l1.208,7.094h11.5l1.2-7.04a5.38,5.38,0,0,1,2.28-3.534A16.359,16.359,0,0,0-324.238-162.118Z" transform="translate(356.994 178.496)" fill="none" stroke="#000" stroke-linecap="round" stroke-linejoin="round" stroke-miterlimit="10" stroke-width="1.3"/>
          </g>
          <g id="g7349" transform="translate(17.128 48.15)">
            <path id="path7351" d="M-164.525-41.954h-14.5a2.119,2.119,0,0,1-2.119-2.119,2.119,2.119,0,0,1,2.119-2.119h14.5a2.119,2.119,0,0,1,2.119,2.119,2.119,2.119,0,0,1-2.119,2.119" transform="translate(181.146 46.192)" fill="#a79ca7"/>
          </g>
          <g id="g7353" transform="translate(17.128 48.15)">
            <path id="path7355" d="M-50.858-20.977h0A2.119,2.119,0,0,1-48.739-23.1h-5.138A2.119,2.119,0,0,0-56-20.977a2.119,2.119,0,0,0,2.119,2.119h5.138a2.119,2.119,0,0,1-2.119-2.119" transform="translate(55.996 23.096)" fill="#918291"/>
          </g>
          <g id="g7357" transform="translate(16.425 14.948)">
            <path id="path7359" d="M-197.851-98.925a9.994,9.994,0,0,1-9.994,9.994,9.994,9.994,0,0,1-9.994-9.994,9.994,9.994,0,0,1,9.994-9.994,9.994,9.994,0,0,1,9.994,9.994" transform="translate(217.838 108.918)" fill="#fff"/>
          </g>
          <g id="g7361" transform="translate(16.425 14.948)">
            <path id="path7363" d="M-50.546-98.925a10,10,0,0,1,7.441-9.663,10,10,0,0,0-2.553-.33,9.994,9.994,0,0,0-9.994,9.994,9.994,9.994,0,0,0,9.994,9.994,10,10,0,0,0,2.553-.33,10,10,0,0,1-7.441-9.663" transform="translate(55.652 108.918)" fill="#f3f0f3"/>
          </g>
          <g id="g7365" transform="translate(16.425 14.948)">
            <path id="path7367" d="M-196.183-80.909a9.995,9.995,0,0,0-9.825-8.174A9.994,9.994,0,0,0-216-79.089a9.994,9.994,0,0,0,9.994,9.994,10,10,0,0,0,9.688-7.532" transform="translate(216.002 89.082)" fill="none" stroke="#000" stroke-linecap="round" stroke-linejoin="round" stroke-miterlimit="10" stroke-width="1.3"/>
          </g>
          <g id="g7369" transform="translate(17.128 43.912)">
            <path id="path7371" d="M-164.525-41.952h-14.5a2.119,2.119,0,0,1-2.119-2.119,2.119,2.119,0,0,1,2.119-2.119h14.5a2.119,2.119,0,0,1,2.119,2.119,2.119,2.119,0,0,1-2.119,2.119" transform="translate(181.146 46.191)" fill="#918291"/>
          </g>
          <g id="g7373" transform="translate(17.128 43.912)">
            <path id="path7375" d="M-50.858-20.976h0a2.119,2.119,0,0,1,2.119-2.119h-5.138A2.119,2.119,0,0,0-56-20.976a2.119,2.119,0,0,0,2.119,2.119h5.138a2.119,2.119,0,0,1-2.119-2.119" transform="translate(55.996 23.095)" fill="#7a6d79"/>
          </g>
          <g id="g7377" transform="translate(17.128 43.912)">
            <path id="path7379" d="M-142.893-41.952h2.185a2.119,2.119,0,0,0,2.119-2.119,2.119,2.119,0,0,0-2.119-2.119h-14.5a2.119,2.119,0,0,0-2.119,2.119,2.119,2.119,0,0,0,2.119,2.119h8.035" transform="translate(157.329 46.191)" fill="none" stroke="#000" stroke-linecap="round" stroke-linejoin="round" stroke-miterlimit="10" stroke-width="1.3"/>
          </g>
          <g id="g7381" transform="translate(17.128 48.15)">
            <path id="path7383" d="M-164.525,0a2.119,2.119,0,0,1,2.119,2.119,2.119,2.119,0,0,1-2.119,2.119h-14.5a2.119,2.119,0,0,1-2.119-2.119A2.119,2.119,0,0,1-179.027,0" transform="translate(181.146)" fill="none" stroke="#000" stroke-linecap="round" stroke-linejoin="round" stroke-miterlimit="10" stroke-width="1.3"/>
          </g>
          <g id="g7385" transform="translate(17.128 52.389)">
            <path id="path7387" d="M-164.525-41.952h-14.5a2.119,2.119,0,0,1-2.119-2.119,2.119,2.119,0,0,1,2.119-2.119h14.5a2.119,2.119,0,0,1,2.119,2.119,2.119,2.119,0,0,1-2.119,2.119" transform="translate(181.146 46.191)" fill="#918291"/>
          </g>
          <g id="g7389" transform="translate(17.128 52.389)">
            <path id="path7391" d="M-50.858-20.976h0a2.119,2.119,0,0,1,2.119-2.119h-5.138A2.119,2.119,0,0,0-56-20.976a2.119,2.119,0,0,0,2.119,2.119h5.138a2.119,2.119,0,0,1-2.119-2.119" transform="translate(55.996 23.095)" fill="#7a6d79"/>
          </g>
          <g id="g7393" transform="translate(17.128 52.389)">
            <path id="path7395" d="M-164.525-41.952h-14.5a2.119,2.119,0,0,1-2.119-2.119,2.119,2.119,0,0,1,2.119-2.119h14.5a2.119,2.119,0,0,1,2.119,2.119A2.119,2.119,0,0,1-164.525-41.952Z" transform="translate(181.146 46.191)" fill="none" stroke="#000" stroke-linecap="round" stroke-linejoin="round" stroke-miterlimit="10" stroke-width="1.3"/>
          </g>
          <g id="g7397" transform="translate(22.344 22.494)">
            <path id="path7399" d="M0-19.36l3.1,3.1,5.053-5.052" transform="translate(0 21.316)" fill="none" stroke="#000" stroke-linecap="round" stroke-linejoin="round" stroke-miterlimit="10" stroke-width="1.3"/>
          </g>
          <g id="g7401" transform="translate(2.473 24.942)">
            <path id="path7403" d="M0,0H3.875" fill="none" stroke="#000" stroke-linecap="round" stroke-linejoin="round" stroke-miterlimit="10" stroke-width="1.3"/>
          </g>
          <g id="g7405" transform="translate(26.498 0.918)">
            <path id="path7407" d="M0,0V3.875" fill="none" stroke="#000" stroke-linecap="round" stroke-linejoin="round" stroke-miterlimit="10" stroke-width="1.3"/>
          </g>
          <g id="g7409" transform="translate(5.692 35.017)">
            <path id="path7411" d="M0-19.178l3.356-1.937" transform="translate(0 21.116)" fill="none" stroke="#000" stroke-linecap="round" stroke-linejoin="round" stroke-miterlimit="10" stroke-width="1.3"/>
          </g>
          <g id="g7413" transform="translate(14.486 4.136)">
            <path id="path7415" d="M0,0,1.937,3.356" fill="none" stroke="#000" stroke-linecap="round" stroke-linejoin="round" stroke-miterlimit="10" stroke-width="1.3"/>
          </g>
          <g id="g7417" transform="translate(36.573 4.136)">
            <path id="path7419" d="M0-33.219l1.938-3.356" transform="translate(0 36.575)" fill="none" stroke="#000" stroke-linecap="round" stroke-linejoin="round" stroke-miterlimit="10" stroke-width="1.3"/>
          </g>
          <g id="g7421" transform="translate(5.692 12.93)">
            <path id="path7423" d="M0,0,3.356,1.937" fill="none" stroke="#000" stroke-linecap="round" stroke-linejoin="round" stroke-miterlimit="10" stroke-width="1.3"/>
          </g>
          <g id="g7425" transform="translate(39.599 13.826)">
            <path id="path7427" d="M-50.892-122.417v-9.8a2.571,2.571,0,0,0-2.571-2.571,2.571,2.571,0,0,0-2.571,2.571v19.8a4.168,4.168,0,0,0,3.891,4.159v6.958h12.784v-6.958a4.168,4.168,0,0,0,3.891-4.159v-10Z" transform="translate(56.033 134.784)" fill="#f6a96c"/>
          </g>
          <g id="g7429" transform="translate(39.599 13.826)">
            <path id="path7431" d="M-24.48-221.449v-19.8a2.569,2.569,0,0,1,1.334-2.253,2.557,2.557,0,0,0-1.236-.317,2.571,2.571,0,0,0-2.571,2.571v19.8a4.168,4.168,0,0,0,3.891,4.158v6.958h2.473v-6.958a4.168,4.168,0,0,1-3.891-4.158" transform="translate(26.953 243.821)" fill="#ea9b58"/>
          </g>
          <g id="g7433" transform="translate(39.599 13.826)">
            <path id="path7435" d="M-50.892-122.417v-9.8a2.571,2.571,0,0,0-2.571-2.571,2.571,2.571,0,0,0-2.571,2.571v19.8a4.168,4.168,0,0,0,3.891,4.159v6.958h12.784v-6.958a4.168,4.168,0,0,0,3.891-4.159v-10Z" transform="translate(56.033 134.784)" fill="none" stroke="#000" stroke-linecap="round" stroke-linejoin="round" stroke-miterlimit="10" stroke-width="1.3"/>
          </g>
          <g id="g7437" transform="translate(44.74 23.275)">
            <path id="path7439" d="M-50.892-90.781h-5.141v-6.6a2.571,2.571,0,0,1,2.571-2.571,2.571,2.571,0,0,1,2.571,2.571Z" transform="translate(56.033 99.952)" fill="#f6a96c"/>
          </g>
          <g id="g7441" transform="translate(44.74 23.275)">
            <path id="path7443" d="M-37.732-3.167a2.558,2.558,0,0,0-1.241-.32h0A2.571,2.571,0,0,0-41.544-.916v6.6h2.482v-6.6a2.569,2.569,0,0,1,1.329-2.251" transform="translate(41.544 3.487)" fill="#ea9b58"/>
          </g>
          <g id="g7445" transform="translate(44.74 23.275)">
            <path id="path7447" d="M-50.892-90.781h-5.141v-6.6a2.571,2.571,0,0,1,2.571-2.571,2.571,2.571,0,0,1,2.571,2.571Z" transform="translate(56.033 99.952)" fill="none" stroke="#000" stroke-linecap="round" stroke-linejoin="round" stroke-miterlimit="10" stroke-width="1.3"/>
          </g>
          <g id="g7449" transform="translate(49.882 23.275)">
            <path id="path7451" d="M-25.445-90.781h-2.571v-6.6a2.571,2.571,0,0,1,2.571-2.571h0a2.571,2.571,0,0,1,2.571,2.571v4.03a2.571,2.571,0,0,1-2.571,2.571" transform="translate(28.016 99.952)" fill="#f6a96c"/>
          </g>
          <g id="g7453" transform="translate(49.882 23.275)">
            <path id="path7455" d="M-37.718-3.157a2.559,2.559,0,0,0-1.24-.319A2.571,2.571,0,0,0-41.528-.905v6.6h2.479v-6.6a2.569,2.569,0,0,1,1.331-2.252" transform="translate(41.528 3.476)" fill="#ea9b58"/>
          </g>
          <g id="g7457" transform="translate(49.882 23.275)">
            <path id="path7459" d="M-25.445-90.781h-2.571v-6.6a2.571,2.571,0,0,1,2.571-2.571h0a2.571,2.571,0,0,1,2.571,2.571v4.03A2.571,2.571,0,0,1-25.445-90.781Z" transform="translate(28.016 99.952)" fill="none" stroke="#000" stroke-linecap="round" stroke-linejoin="round" stroke-miterlimit="10" stroke-width="1.3"/>
          </g>
          <g id="g7461" transform="translate(55.023 23.275)">
            <path id="path7463" d="M-25.447-90.781h0a2.571,2.571,0,0,1-2.571-2.571v-4.03a2.571,2.571,0,0,1,2.571-2.571,2.571,2.571,0,0,1,2.571,2.571v4.03a2.571,2.571,0,0,1-2.571,2.571" transform="translate(28.017 99.952)" fill="#f6a96c"/>
          </g>
          <g id="g7465" transform="translate(55.023 23.275)">
            <path id="path7467" d="M-24.51-65.334v-4.03a2.57,2.57,0,0,1,1.333-2.253,2.559,2.559,0,0,0-1.238-.318,2.571,2.571,0,0,0-2.57,2.571v4.03a2.571,2.571,0,0,0,2.57,2.571,2.559,2.559,0,0,0,1.238-.318,2.569,2.569,0,0,1-1.333-2.253" transform="translate(26.987 71.934)" fill="#ea9b58"/>
          </g>
          <g id="g7469" transform="translate(55.023 23.275)">
            <path id="path7471" d="M-25.447-90.781h0a2.571,2.571,0,0,1-2.571-2.571v-4.03a2.571,2.571,0,0,1,2.571-2.571,2.571,2.571,0,0,1,2.571,2.571v4.03A2.571,2.571,0,0,1-25.447-90.781Z" transform="translate(28.017 99.952)" fill="none" stroke="#000" stroke-linecap="round" stroke-linejoin="round" stroke-miterlimit="10" stroke-width="1.3"/>
          </g>
          <g id="g7473" transform="translate(39.599 29.25)">
            <path id="path7475" d="M-98.346,0h-7.365a2.571,2.571,0,0,0-2.571,2.571V6.948a4.169,4.169,0,0,0,4.169,4.169h.973V5.141h4.794a2.571,2.571,0,0,0,2.571-2.571A2.571,2.571,0,0,0-98.346,0" transform="translate(108.281)" fill="#f6a96c"/>
          </g>
          <g id="g7477" transform="translate(39.599 29.25)">
            <path id="path7479" d="M-41.263-110.038a4.169,4.169,0,0,1-4.169-4.169v-4.377a2.571,2.571,0,0,1,2.571-2.571H-35.5a2.571,2.571,0,0,1,2.571,2.571,2.571,2.571,0,0,1-2.571,2.571h-4.794v1.945" transform="translate(45.432 121.154)" fill="none" stroke="#000" stroke-linecap="round" stroke-linejoin="round" stroke-miterlimit="10" stroke-width="1.3"/>
          </g>
          <g id="g7481" transform="translate(40.989 44.46)">
            <path id="path7483" d="M0-10.586v6A1.069,1.069,0,0,0,1.069-3.522H16.717a1.07,1.07,0,0,0,1.07-1.069v-6a1.07,1.07,0,0,0-1.07-1.069H1.069A1.069,1.069,0,0,0,0-10.586" transform="translate(0 11.656)" fill="#8ac9fe"/>
          </g>
          <g id="g7485" transform="translate(40.989 44.46)">
            <path id="path7487" d="M-50.812-69.934v-6A1.07,1.07,0,0,1-49.742-77h-5.133a1.07,1.07,0,0,0-1.07,1.069v6a1.07,1.07,0,0,0,1.07,1.069h5.133a1.069,1.069,0,0,1-1.069-1.069" transform="translate(55.945 76.998)" fill="#60b8fe"/>
          </g>
          <g id="g7489" transform="translate(40.989 44.46)">
            <path id="path7491" d="M-146.48-80.52h1.919a1.069,1.069,0,0,0,1.069-1.069v-6a1.069,1.069,0,0,0-1.069-1.069h-15.647a1.07,1.07,0,0,0-1.07,1.069v6a1.07,1.07,0,0,0,1.07,1.069h9.447" transform="translate(161.278 88.654)" fill="none" stroke="#000" stroke-linecap="round" stroke-linejoin="round" stroke-miterlimit="10" stroke-width="1.3"/>
          </g>
        </g>
      </g>
    </g>
  </g>
</svg>
