<svg xmlns="http://www.w3.org/2000/svg" xmlns:xlink="http://www.w3.org/1999/xlink" width="106" height="106" viewBox="0 0 106 106">
  <defs>
    <filter id="Trazado_982547" x="0" y="0" width="106" height="106" filterUnits="userSpaceOnUse">
      <feOffset dy="3" input="SourceAlpha"/>
      <feGaussianBlur stdDeviation="3" result="blur"/>
      <feFlood flood-opacity="0.161"/>
      <feComposite operator="in" in2="blur"/>
      <feComposite in="SourceGraphic"/>
    </filter>
  </defs>
  <g id="Grupo_1173931" data-name="Grupo 1173931" transform="translate(-171 -3295)">
    <g id="Grupo_1173865" data-name="Grupo 1173865" transform="translate(0 -416)">
      <g id="Grupo_1172017" data-name="Grupo 1172017" transform="translate(0 2654)">
        <g id="Grupo_1167337" data-name="Grupo 1167337" transform="translate(180 1063)">
          <g id="Grupo_1166720" data-name="Grupo 1166720" transform="translate(0)">
            <g id="Grupo_1164305" data-name="Grupo 1164305">
              <g id="Grupo_1163948" data-name="Grupo 1163948">
                <g id="Grupo_1158168" data-name="Grupo 1158168">
                  <g id="Grupo_1152576" data-name="Grupo 1152576">
                    <g id="Grupo_1148633" data-name="Grupo 1148633">
                      <g id="Grupo_1148525" data-name="Grupo 1148525">
                        <g transform="matrix(1, 0, 0, 1, -9, -6)" filter="url(#Trazado_982547)">
                          <g id="Trazado_982547-2" data-name="Trazado 982547" transform="translate(9 6)" fill="#e9f9fd">
                            <path d="M 44 86.5 C 38.26187515258789 86.5 32.69618606567383 85.37651062011719 27.45755004882812 83.16075897216797 C 22.3968505859375 81.020263671875 17.85157585144043 77.95565032958984 13.94796276092529 74.05204010009766 C 10.04434967041016 70.1484375 6.979737281799316 65.6031494140625 4.839250087738037 60.54246139526367 C 2.62348747253418 55.30381393432617 1.5 49.73812484741211 1.5 44 C 1.5 38.26187515258789 2.62348747253418 32.69618606567383 4.839250087738037 27.45755004882812 C 6.979737281799316 22.3968505859375 10.04434967041016 17.85157585144043 13.94796276092529 13.94796276092529 C 17.85157585144043 10.04434967041016 22.3968505859375 6.979737281799316 27.45755004882812 4.839250087738037 C 32.69618606567383 2.62348747253418 38.26187515258789 1.5 44 1.5 C 49.73812484741211 1.5 55.30381393432617 2.62348747253418 60.54246139526367 4.839250087738037 C 65.6031494140625 6.979737281799316 70.1484375 10.04434967041016 74.05204010009766 13.94796276092529 C 77.95565032958984 17.85157585144043 81.020263671875 22.3968505859375 83.16075897216797 27.45755004882812 C 85.37651062011719 32.69618606567383 86.5 38.26187515258789 86.5 44 C 86.5 49.73812484741211 85.37651062011719 55.30381393432617 83.16075897216797 60.54246139526367 C 81.020263671875 65.6031494140625 77.95565032958984 70.1484375 74.05204010009766 74.05204010009766 C 70.1484375 77.95565032958984 65.6031494140625 81.020263671875 60.54246139526367 83.16075897216797 C 55.30381393432617 85.37651062011719 49.73812484741211 86.5 44 86.5 Z" stroke="none"/>
                            <path d="M 44 3 C 38.46371459960938 3 33.09462738037109 4.083610534667969 28.0418701171875 6.220756530761719 C 23.15997314453125 8.285614013671875 18.77495574951172 11.24228668212891 15.00862884521484 15.00862884521484 C 11.24228668212891 18.77495574951172 8.285614013671875 23.15997314453125 6.220756530761719 28.0418701171875 C 4.083610534667969 33.09462738037109 3 38.46371459960938 3 44 C 3 49.53628540039062 4.083610534667969 54.9053840637207 6.220756530761719 59.9581298828125 C 8.285614013671875 64.84002685546875 11.24228668212891 69.22504425048828 15.00862884521484 72.99138641357422 C 18.77495574951172 76.75771331787109 23.15997314453125 79.71438598632812 28.0418701171875 81.77925872802734 C 33.09462738037109 83.9163818359375 38.46371459960938 85 44 85 C 49.53628540039062 85 54.9053840637207 83.9163818359375 59.95814514160156 81.77925872802734 C 64.84002685546875 79.71438598632812 69.22504425048828 76.75771331787109 72.99138641357422 72.99138641357422 C 76.75771331787109 69.22504425048828 79.71438598632812 64.84002685546875 81.77925872802734 59.95814514160156 C 83.9163818359375 54.9053840637207 85 49.53628540039062 85 44 C 85 38.46371459960938 83.9163818359375 33.09462738037109 81.77925872802734 28.0418701171875 C 79.71438598632812 23.15997314453125 76.75771331787109 18.77495574951172 72.99138641357422 15.00862884521484 C 69.22504425048828 11.24228668212891 64.84002685546875 8.285614013671875 59.9581298828125 6.220756530761719 C 54.9053840637207 4.083610534667969 49.53628540039062 3 44 3 M 44 0 C 68.30054473876953 0 88 19.69947052001953 88 44 C 88 68.30054473876953 68.30054473876953 88 44 88 C 19.69947052001953 88 0 68.30054473876953 0 44 C 0 19.69947052001953 19.69947052001953 0 44 0 Z" stroke="none" fill="#1d7083"/>
                          </g>
                        </g>
                      </g>
                    </g>
                  </g>
                </g>
              </g>
            </g>
          </g>
        </g>
      </g>
    </g>
    <g id="interest-rate_11073409" transform="translate(-140.773 3075.227)">
      <g id="Icon" transform="translate(337 241)">
        <path id="Trazado_1031512" data-name="Trazado 1031512" d="M385.386,282.339A2.339,2.339,0,0,0,383.047,280H364.339A2.339,2.339,0,0,0,362,282.339v2.339a2.339,2.339,0,0,0,2.339,2.339h18.709a2.339,2.339,0,0,0,2.339-2.339Z" transform="translate(-332.768 -234.398)" fill="#fec107" fill-rule="evenodd"/>
        <g id="Grupo_1173926" data-name="Grupo 1173926" transform="translate(1.169 45.602)">
          <path id="Trazado_1031513" data-name="Trazado 1031513" d="M390.063,282.339A2.339,2.339,0,0,0,387.724,280H364.339A2.339,2.339,0,0,0,362,282.339v2.339a2.339,2.339,0,0,0,2.339,2.339h23.386a2.339,2.339,0,0,0,2.339-2.339Z" transform="translate(-362 -280)" fill="#fec107" fill-rule="evenodd"/>
        </g>
        <g id="Grupo_1173927" data-name="Grupo 1173927" transform="translate(29.232 38.585)">
          <path id="Trazado_1031514" data-name="Trazado 1031514" d="M385.386,282.339A2.339,2.339,0,0,0,383.047,280H364.339A2.339,2.339,0,0,0,362,282.339v2.339a2.339,2.339,0,0,0,2.339,2.339h18.709a2.339,2.339,0,0,0,2.339-2.339Z" transform="translate(-362 -280)" fill="#ffc928" fill-rule="evenodd"/>
        </g>
        <g id="Grupo_1173928" data-name="Grupo 1173928" transform="translate(1.169 38.585)">
          <path id="Trazado_1031515" data-name="Trazado 1031515" d="M390.063,282.339A2.339,2.339,0,0,0,387.724,280H364.339A2.339,2.339,0,0,0,362,282.339v2.339a2.339,2.339,0,0,0,2.339,2.339h23.386a2.339,2.339,0,0,0,2.339-2.339Z" transform="translate(-362 -280)" fill="#ffc928" fill-rule="evenodd"/>
        </g>
        <g id="Grupo_1173929" data-name="Grupo 1173929" transform="translate(29.232 31.57)">
          <path id="Trazado_1031516" data-name="Trazado 1031516" d="M385.386,282.339A2.339,2.339,0,0,0,383.047,280H364.339A2.339,2.339,0,0,0,362,282.339v2.339a2.339,2.339,0,0,0,2.339,2.339h18.709a2.339,2.339,0,0,0,2.339-2.339Z" transform="translate(-362 -280)" fill="#ffd54f" fill-rule="evenodd"/>
        </g>
        <circle id="Elipse_11858" data-name="Elipse 11858" cx="14.525" cy="14.525" r="14.525" transform="translate(0.787 10.393)" fill="#ffd54f"/>
        <path id="Trazado_1031517" data-name="Trazado 1031517" d="M375.225,242.935a2.339,2.339,0,0,0-3.742,0l-7.016,9.353a2.338,2.338,0,0,0,1.871,3.742h2.339v9.355a2.338,2.338,0,0,0,2.339,2.339h4.677a2.338,2.338,0,0,0,2.339-2.339V256.03h2.339a2.338,2.338,0,0,0,1.871-3.742Z" transform="translate(-332.429 -240.831)" fill="#80c783" fill-rule="evenodd"/>
        <path id="Trazado_1031518" data-name="Trazado 1031518" d="M344.1,277.062h-3.593A3.509,3.509,0,0,0,337,280.57v2.339a3.51,3.51,0,0,0,.893,2.34,3.5,3.5,0,0,0-.893,2.339v2.339a3.509,3.509,0,0,0,3.508,3.508h23.386a3.5,3.5,0,0,0,2.339-.893,3.5,3.5,0,0,0,2.339.893h18.709a3.509,3.509,0,0,0,3.508-3.508v-2.339a3.5,3.5,0,0,0-.893-2.339,3.51,3.51,0,0,0,.893-2.34V280.57a3.507,3.507,0,0,0-.893-2.339,3.5,3.5,0,0,0,.893-2.339v-2.339a3.509,3.509,0,0,0-3.508-3.508H368.571a3.509,3.509,0,0,0-3.508,3.508v2.339a3.516,3.516,0,0,0,.343,1.513,3.492,3.492,0,0,0-1.512-.344H360.3a15.2,15.2,0,1,0-16.2,0Zm23.3,12.863v-2.339a1.17,1.17,0,0,1,1.169-1.169h18.709a1.17,1.17,0,0,1,1.169,1.169v2.339a1.17,1.17,0,0,1-1.169,1.169H368.571a1.17,1.17,0,0,1-1.169-1.169Zm-2.339-2.339v2.339a1.17,1.17,0,0,1-1.169,1.169H340.508a1.17,1.17,0,0,1-1.169-1.169v-2.339a1.17,1.17,0,0,1,1.169-1.169h23.386a1.17,1.17,0,0,1,1.169,1.169Zm2.339-4.678V280.57a1.17,1.17,0,0,1,1.169-1.169h18.709a1.17,1.17,0,0,1,1.169,1.169v2.339a1.168,1.168,0,0,1-1.169,1.169H368.571a1.168,1.168,0,0,1-1.169-1.169Zm-2.339-2.339v2.339a1.168,1.168,0,0,1-1.169,1.169H340.508a1.168,1.168,0,0,1-1.169-1.169V280.57a1.17,1.17,0,0,1,1.169-1.169h23.386a1.17,1.17,0,0,1,1.169,1.169ZM352.2,251.338A12.862,12.862,0,1,1,339.339,264.2,12.868,12.868,0,0,1,352.2,251.338Zm36.248,22.216v2.339a1.17,1.17,0,0,1-1.169,1.169H368.571a1.17,1.17,0,0,1-1.169-1.169v-2.339a1.17,1.17,0,0,1,1.169-1.169h18.709a1.17,1.17,0,0,1,1.169,1.169Z" transform="translate(-337 -239.646)" fill-rule="evenodd"/>
        <g id="Grupo_1173930" data-name="Grupo 1173930" transform="translate(7.016 16.37)">
          <path id="Trazado_1031519" data-name="Trazado 1031519" d="M346.508,257a3.508,3.508,0,1,0,3.508,3.508A3.509,3.509,0,0,0,346.508,257Zm0,2.339a1.169,1.169,0,1,1-1.169,1.169A1.17,1.17,0,0,1,346.508,259.339Z" transform="translate(-343 -257)" fill-rule="evenodd"/>
        </g>
        <path id="Trazado_1031520" data-name="Trazado 1031520" d="M354.508,263a3.508,3.508,0,1,0,3.508,3.508A3.509,3.509,0,0,0,354.508,263Zm0,2.339a1.169,1.169,0,1,1-1.169,1.169A1.17,1.17,0,0,1,354.508,265.339Z" transform="translate(-334.63 -237.276)" fill-rule="evenodd"/>
        <path id="Trazado_1031521" data-name="Trazado 1031521" d="M345,271.027,359.027,257a1.169,1.169,0,0,0-1.653-1.653l-14.031,14.031A1.169,1.169,0,0,0,345,271.027Z" transform="translate(-335.984 -238.63)" fill-rule="evenodd"/>
        <path id="Trazado_1031522" data-name="Trazado 1031522" d="M376.33,242.4a3.508,3.508,0,0,0-5.613,0l-7.016,9.353a3.508,3.508,0,0,0,2.806,5.613h1.169v8.186a3.508,3.508,0,0,0,3.508,3.508h4.677a3.508,3.508,0,0,0,3.508-3.508v-8.186h1.169a3.508,3.508,0,0,0,2.806-5.613L376.33,242.4Zm-1.871,1.4,7.016,9.353a1.169,1.169,0,0,1-.935,1.871H378.2a1.17,1.17,0,0,0-1.169,1.169v9.355a1.17,1.17,0,0,1-1.169,1.169h-4.677a1.17,1.17,0,0,1-1.169-1.169V256.2a1.17,1.17,0,0,0-1.169-1.169h-2.339a1.169,1.169,0,0,1-.935-1.871l7.016-9.353a1.169,1.169,0,0,1,1.871,0Z" transform="translate(-332.598 -241)" fill-rule="evenodd"/>
      </g>
    </g>
  </g>
</svg>
